<?xml version="1.0" encoding="UTF-8"?>
<svg version="1.1" xmlns="http://www.w3.org/2000/svg" width="256" height="256">
<path d="M0 0 C0.78938965 0.10006348 1.5787793 0.20012695 2.39208984 0.30322266 C23.81229477 3.13460406 41.52094684 10.68819874 56.4609375 26.43994141 C59.31266368 29.33057121 62.35185301 32.17592651 66 34 C66.2165625 34.928125 66.2165625 34.928125 66.4375 35.875 C67.11353199 38.42889862 68.15271641 39.15697021 70 41 C71.55385136 43.46832404 72.81830357 46.0812868 74.125 48.6875 C74.48464844 49.37005859 74.84429687 50.05261719 75.21484375 50.75585938 C77.66530736 55.61548664 78.50895293 59.58768996 79 65 C79.48679894 67.34067054 80.00547835 69.67504007 80.5625 72 C80.96662109 73.7015625 80.96662109 73.7015625 81.37890625 75.4375 C81.58386719 76.283125 81.78882813 77.12875 82 78 C82.66 78 83.32 78 84 78 C85.05619003 82.28297531 85.11702092 86.42985646 85.0625 90.8125 C85.05798828 91.50537109 85.05347656 92.19824219 85.04882812 92.91210938 C85.03713156 94.60811068 85.01919924 96.30406703 85 98 C84.34 98 83.68 98 83 98 C82.67 104.27 82.34 110.54 82 117 C81.34 117 80.68 117 80 117 C79.34 120.3 78.68 123.6 78 127 C77.34 127 76.68 127 76 127 C75.95875 127.9075 75.9175 128.815 75.875 129.75 C75.0487111 135.58192308 72.17352736 141.10221421 69 146 C66.85546875 147.20703125 66.85546875 147.20703125 65 148 C64.71125 148.78375 64.4225 149.5675 64.125 150.375 C62.84480512 153.36212138 61.51383664 154.13088103 58.7890625 155.76171875 C55.0907514 158.32146682 52.10571777 161.76837475 49 165 C47 167 47 167 44 168 C42.09332752 169.21228493 40.19935295 170.44459185 38.3125 171.6875 C21.85827748 181.95726008 1.39274494 186.72340225 -18 186 C-18 185.34 -18 184.68 -18 184 C-18.95777344 183.86464844 -19.91554688 183.72929687 -20.90234375 183.58984375 C-40.25221458 180.57909921 -59.14132339 172.45295215 -72.38671875 157.59375 C-74.13063464 155.87094689 -75.81034089 155.06025599 -78 154 C-78.70151152 152.6846659 -79.36525925 151.34882408 -80 150 C-81.75014992 148.13693719 -83.54912727 146.39797033 -85.46484375 144.70703125 C-90.16227184 139.48368246 -92.53943045 131.90854327 -93 125 C-93.66 125 -94.32 125 -95 125 C-95.1953125 123.14453125 -95.390625 121.2890625 -95.5859375 119.43359375 C-95.97243987 116.84367854 -95.97243987 116.84367854 -96.98413086 113.8034668 C-97.99376293 110.02335192 -98.41547502 106.60939979 -98.66796875 102.7109375 C-98.71190262 102.04462311 -98.75583649 101.37830872 -98.80110168 100.69180298 C-98.89125438 99.29542356 -98.97761207 97.89879429 -99.06030273 96.50195312 C-99.18762776 94.37286371 -99.3302761 92.2451843 -99.47460938 90.1171875 C-99.56080924 88.75266156 -99.64612625 87.3880795 -99.73046875 86.0234375 C-99.80676514 84.79544434 -99.88306152 83.56745117 -99.96166992 82.30224609 C-99.99612103 79.3341844 -99.71892483 76.8668698 -99 74 C-98.34 74 -97.68 74 -97 74 C-96.86722656 73.19175781 -96.73445313 72.38351563 -96.59765625 71.55078125 C-96.42105469 70.48214844 -96.24445313 69.41351563 -96.0625 68.3125 C-95.88847656 67.25675781 -95.71445313 66.20101562 -95.53515625 65.11328125 C-95.35855469 64.08589844 -95.18195313 63.05851562 -95 62 C-94.8764917 61.22245361 -94.7529834 60.44490723 -94.62573242 59.64379883 C-93.41558604 54.5307769 -90.66027897 50.01191765 -88.25 45.375 C-87.7240625 44.32570312 -87.198125 43.27640625 -86.65625 42.1953125 C-86.13546875 41.18984375 -85.6146875 40.184375 -85.078125 39.1484375 C-84.60793945 38.23239746 -84.13775391 37.31635742 -83.65332031 36.37255859 C-81.74042478 33.62750266 -79.92276644 32.56695404 -77 31 C-75.22387848 29.40495233 -73.49541462 27.75559867 -71.8125 26.0625 C-70.95269531 25.20785156 -70.09289062 24.35320313 -69.20703125 23.47265625 C-66.96911279 21.1959075 -66.96911279 21.1959075 -65.94921875 18.80859375 C-64.69584394 16.42047631 -63.42870784 16.11751185 -61 15 C-60.31647461 14.66814697 -59.63294922 14.33629395 -58.92871094 13.99438477 C-56.53746918 12.84691862 -54.14401215 11.70417451 -51.75 10.5625 C-50.92886719 10.16740234 -50.10773438 9.77230469 -49.26171875 9.36523438 C-40.24277963 5.07016115 -32.01437158 2.37970917 -22.125 0.75 C-21.10019531 0.564375 -20.07539062 0.37875 -19.01953125 0.1875 C-12.39995829 -0.92277145 -6.62056048 -1.01803053 0 0 Z M-94 59 C-93 61 -93 61 -93 61 Z M-99 79 C-98 83 -98 83 -98 83 Z M74 129 C75 131 75 131 75 131 Z M-87 138 C-86 140 -86 140 -86 140 Z M70 138 C71 140 71 140 71 140 Z " fill="#FBD07A" transform="translate(136,33)"/>
<path d="M0 0 C6.791044 2.66791014 10.14736479 10.25015754 13.8203125 16.1796875 C15.85360478 19.65585689 15.85360478 19.65585689 19 22 C19.8013619 24.85741085 20.49708506 27.66711443 21.125 30.5625 C21.30675781 31.36880859 21.48851562 32.17511719 21.67578125 33.00585938 C22.12467118 35.00223825 22.56329743 37.0009198 23 39 C23.66 39 24.32 39 25 39 C26.05619003 43.28297531 26.11702092 47.42985646 26.0625 51.8125 C26.05798828 52.50537109 26.05347656 53.19824219 26.04882812 53.91210938 C26.03713156 55.60811068 26.01919924 57.30406703 26 59 C25.34 59 24.68 59 24 59 C23.67 65.27 23.34 71.54 23 78 C22.34 78 21.68 78 21 78 C20.34 81.3 19.68 84.6 19 88 C17.02 87.01 17.02 87.01 15 86 C13.66195312 87.31677734 13.66195312 87.31677734 12.296875 88.66015625 C11.11521301 89.79492689 9.93288657 90.92900591 8.75 92.0625 C8.16347656 92.64322266 7.57695312 93.22394531 6.97265625 93.82226562 C6.39902344 94.36689453 5.82539063 94.91152344 5.234375 95.47265625 C4.71069336 95.98062744 4.18701172 96.48859863 3.64746094 97.01196289 C2 98 2 98 0.04101562 97.828125 C-2.2429779 96.90141375 -3.93411091 95.77628599 -5.890625 94.27734375 C-6.59960938 93.73916016 -7.30859375 93.20097656 -8.0390625 92.64648438 C-8.76867187 92.08251953 -9.49828125 91.51855469 -10.25 90.9375 C-10.99507812 90.36966797 -11.74015625 89.80183594 -12.5078125 89.21679688 C-14.34300661 87.81687317 -16.17344687 86.41116779 -18 85 C-16.77286715 88.68139855 -15.35948977 89.53396451 -12.3125 91.875 C-10.96478516 92.92300781 -10.96478516 92.92300781 -9.58984375 93.9921875 C-8.73519531 94.65476562 -7.88054687 95.31734375 -7 96 C-4.98418909 97.64894121 -2.99211474 99.32242969 -1 101 C-1.99 101.495 -1.99 101.495 -3 102 C-3 102.66 -3 103.32 -3 104 C-3.66 104 -4.32 104 -5 104 C-5 104.66 -5 105.32 -5 106 C-6.6222454 107.70993434 -8.29413425 109.37347684 -10 111 C-10.556875 111.598125 -11.11375 112.19625 -11.6875 112.8125 C-13 114 -13 114 -15 114 C-16.63139937 112.07412421 -18.13723225 110.15673283 -19.625 108.125 C-20.04523438 107.56941406 -20.46546875 107.01382813 -20.8984375 106.44140625 C-24 102.26235288 -24 102.26235288 -24 100 C-24.66 100 -25.32 100 -26 100 C-23.92559716 103.76465701 -21.82638269 107.30748295 -19.25 110.75 C-17 114 -17 114 -17 117 C-19.52068663 118.10450255 -22.04154494 119.20861043 -24.5625 120.3125 C-25.26697266 120.62123047 -25.97144531 120.92996094 -26.69726562 121.24804688 C-28.10981399 121.86644363 -29.52339181 122.4824942 -30.93798828 123.09619141 C-32.28056992 123.68466373 -33.61789139 124.28533546 -34.94873047 124.89990234 C-38.29635835 126.4204137 -40.23668818 127 -44 127 C-44 127.66 -44 128.32 -44 129 C-45.3894043 130.09741211 -45.3894043 130.09741211 -47.32421875 131.27734375 C-48.02353516 131.70853516 -48.72285156 132.13972656 -49.44335938 132.58398438 C-50.18392578 133.03064453 -50.92449219 133.47730469 -51.6875 133.9375 C-52.40873047 134.38029297 -53.12996094 134.82308594 -53.87304688 135.27929688 C-55.27756144 136.13996288 -56.68487893 136.9960747 -58.09521484 137.84716797 C-59.70459536 138.82121242 -61.30110178 139.81648088 -62.89453125 140.81640625 C-65 142 -65 142 -67 142 C-67.05786668 138.20839703 -67.09355054 134.41690689 -67.125 130.625 C-67.14175781 129.54476562 -67.15851563 128.46453125 -67.17578125 127.3515625 C-67.18222656 126.3203125 -67.18867187 125.2890625 -67.1953125 124.2265625 C-67.20578613 123.27346191 -67.21625977 122.32036133 -67.22705078 121.33837891 C-67 119 -67 119 -65 117 C-64.01 117 -63.02 117 -62 117 C-59.30104814 114.92388319 -58.61484569 113.2828368 -58 110 C-57.84921279 107.62649769 -57.72745926 105.25107914 -57.625 102.875 C-57.17463907 94.60400609 -55.12292513 87.61213 -52 80 C-51.51579261 78.52247574 -51.03718131 77.04311216 -50.5625 75.5625 C-49.63685055 72.68058109 -48.70234735 70.47654189 -47.1875 67.8125 C-45.68506991 65.01453968 -45.68506991 65.01453968 -46.6875 61.9375 C-47.120625 60.968125 -47.55375 59.99875 -48 59 C-48.37125 58.05125 -48.7425 57.1025 -49.125 56.125 C-49.41375 55.42375 -49.7025 54.7225 -50 54 C-49.48050781 54.40992188 -48.96101563 54.81984375 -48.42578125 55.2421875 C-47.72839844 55.78101563 -47.03101563 56.31984375 -46.3125 56.875 C-45.62800781 57.40867188 -44.94351563 57.94234375 -44.23828125 58.4921875 C-38.40742433 62.42012951 -32.85356908 62.75107606 -26 62 C-18.26227576 59.90486236 -14.36920047 56.08125045 -10.39453125 49.234375 C-7.80427749 43.22672762 -7.7248866 35.69323385 -9.8671875 29.48828125 C-10.8470496 27.61080825 -11.9024245 25.81011443 -13 24 C-14.26154572 20.46767198 -14.18770784 19.45988422 -12.75 15.9375 C-9.74 10.885 -9.74 10.885 -8 9 C-7.01 9 -6.02 9 -5 9 C-4.9175 8.443125 -4.835 7.88625 -4.75 7.3125 C-3.77389987 4.30285794 -2.04811186 2.37845248 0 0 Z " fill="#F0B863" transform="translate(195,72)"/>
<path d="M0 0 C0.78938965 0.10006348 1.5787793 0.20012695 2.39208984 0.30322266 C23.81229477 3.13460406 41.52094684 10.68819874 56.4609375 26.43994141 C59.31266368 29.33057121 62.35185301 32.17592651 66 34 C66.2165625 34.928125 66.2165625 34.928125 66.4375 35.875 C67.11407411 38.43094664 68.15172187 39.15341728 70 41 C71.61713501 43.55109915 72.94594059 46.24535386 74.3125 48.9375 C74.69728516 49.65357422 75.08207031 50.36964844 75.47851562 51.10742188 C78.17950531 56.41592436 78.17950531 56.41592436 77.23046875 59.50390625 C76.82441406 59.99761719 76.41835937 60.49132812 76 61 C74.95693915 59.52181613 73.91564846 58.04238319 72.875 56.5625 C71.91787109 55.20318359 71.91787109 55.20318359 70.94140625 53.81640625 C68.68338012 50.5406782 66.55246424 47.1941786 64.45703125 43.8125 C62.87967672 41.59241056 62.87967672 41.59241056 59 40 C57.02 42.31 55.04 44.62 53 47 C52 44 52 44 52.77734375 41.95703125 C53.16019531 41.24933594 53.54304687 40.54164062 53.9375 39.8125 C54.31777344 39.09707031 54.69804687 38.38164063 55.08984375 37.64453125 C55.39019531 37.10183594 55.69054687 36.55914062 56 36 C54.02 35.01 52.04 34.02 50 33 C47.525 37.455 47.525 37.455 45 42 C44.34 42 43.68 42 43 42 C43.6001884 37.79868118 44.61923249 34.0075935 46 30 C30.38904195 29.34115535 17.58184688 31.31762747 5.51220703 42.36132812 C3.07594692 44.73054968 0.73369865 47.16357655 -1.58984375 49.64453125 C-3.71342315 51.71992571 -5.27789517 52.90736859 -8 54 C-8.75023438 53.21496094 -9.50046875 52.42992187 -10.2734375 51.62109375 C-20.98843738 40.55174787 -32.40551121 30.36728031 -48.67578125 29.6953125 C-52.7940142 29.640516 -56.88814217 29.77598838 -61 30 C-59.515 35.94 -59.515 35.94 -58 42 C-61 41 -61 41 -62.16796875 39.15234375 C-62.50441406 38.42144531 -62.84085938 37.69054687 -63.1875 36.9375 C-63.53167969 36.20402344 -63.87585938 35.47054687 -64.23046875 34.71484375 C-64.48441406 34.14894531 -64.73835938 33.58304688 -65 33 C-67.31 33.66 -69.62 34.32 -72 35 C-71.6390625 35.69867188 -71.278125 36.39734375 -70.90625 37.1171875 C-70.4421875 38.02726562 -69.978125 38.93734375 -69.5 39.875 C-69.0359375 40.77992187 -68.571875 41.68484375 -68.09375 42.6171875 C-67 45 -67 45 -67 47 C-70.71368887 45.76210371 -71.77354181 44.14775123 -74 41 C-74 40.34 -74 39.68 -74 39 C-80.64189563 43.98142172 -84.63462853 49.99272839 -89 57 C-90.24546405 54.50907189 -89.7767578 53.58919267 -89 51 C-88.34 51 -87.68 51 -87 51 C-86.7834375 49.824375 -86.7834375 49.824375 -86.5625 48.625 C-86 46 -86 46 -85 44 C-85.66 43.67 -86.32 43.34 -87 43 C-86.09648559 41.36765063 -85.1766431 39.74433176 -84.25 38.125 C-83.48429687 36.76761719 -83.48429687 36.76761719 -82.703125 35.3828125 C-80.85500963 32.7971465 -79.80683416 32.30502252 -77 31 C-75.24232783 29.42849871 -73.53721819 27.79714188 -71.875 26.125 C-71.00617188 25.26132812 -70.13734375 24.39765625 -69.2421875 23.5078125 C-66.97223838 21.20276334 -66.97223838 21.20276334 -65.9453125 18.8046875 C-64.69547862 16.41864101 -63.42554833 16.1162029 -61 15 C-60.31647461 14.66814697 -59.63294922 14.33629395 -58.92871094 13.99438477 C-56.53746918 12.84691862 -54.14401215 11.70417451 -51.75 10.5625 C-50.92886719 10.16740234 -50.10773438 9.77230469 -49.26171875 9.36523438 C-40.24277963 5.07016115 -32.01437158 2.37970917 -22.125 0.75 C-21.10019531 0.564375 -20.07539062 0.37875 -19.01953125 0.1875 C-12.39995829 -0.92277145 -6.62056048 -1.01803053 0 0 Z " fill="#DD832F" transform="translate(136,33)"/>
<path d="M0 0 C5.88158686 5.72680825 8.5186823 11.77020566 8.75 19.9375 C8.67796145 27.70165505 6.95155956 32.46146029 1.6953125 38.12109375 C-4.20688167 43.59046035 -9.94819172 44.77685171 -17.87109375 44.63671875 C-23.59817438 43.9624667 -28.25112339 40.95739718 -32.625 37.3125 C-31.92375 38.34375 -31.2225 39.375 -30.5 40.4375 C-28.84790734 43.33887827 -28.55830923 43.94940583 -29.1875 47.375 C-30.13354791 49.30822834 -31.11215478 51.22591521 -32.125 53.125 C-33.70126169 56.47455609 -34.3734626 59.49854945 -35.09765625 63.1015625 C-35.70775742 65.65946814 -36.73869739 67.93067698 -37.84765625 70.30859375 C-38.84772859 72.88666969 -39.39634216 75.48979746 -40 78.1875 C-41.76061741 85.58209314 -45.02748221 91.32503497 -49.625 97.3125 C-53.26123211 95.88121715 -54.49460956 94.32349283 -56.25 90.875 C-57.61990047 88.22681661 -58.96537371 85.80193944 -60.625 83.3125 C-60.82683953 81.42866437 -61.02770171 79.54471684 -61.22265625 77.66015625 C-61.83668412 74.07733344 -63.20718406 70.84498286 -64.515625 67.46484375 C-66.23886367 62.56817612 -67.39303243 57.54597791 -68.59765625 52.5 C-69.33331757 49.32782797 -69.33331757 49.32782797 -71.30859375 47.75 C-72.625 46.3125 -72.625 46.3125 -72.55859375 43.5 C-69.9318747 34.53178767 -62.86769355 27.70407124 -54.984375 23.10546875 C-51.18083869 21.8271279 -48.68955045 22.79630304 -45.16796875 24.50390625 C-44.00201172 25.18259766 -44.00201172 25.18259766 -42.8125 25.875 C-42.02230469 26.33003906 -41.23210937 26.78507812 -40.41796875 27.25390625 C-39.82628906 27.60324219 -39.23460937 27.95257813 -38.625 28.3125 C-38.72941406 27.11367187 -38.72941406 27.11367187 -38.8359375 25.890625 C-39.31291451 16.21480572 -37.32458867 8.72701491 -30.87890625 1.30078125 C-21.6616026 -7.17749583 -10.04308843 -6.45627113 0 0 Z " fill="#E78814" transform="translate(178.625,90.6875)"/>
<path d="M0 0 C0 3 0 3 -1.26928711 4.33447266 C-1.8494458 4.7732373 -2.42960449 5.21200195 -3.02734375 5.6640625 C-3.65447266 6.14617187 -4.28160156 6.62828125 -4.92773438 7.125 C-5.59095703 7.62 -6.25417969 8.115 -6.9375 8.625 C-8.23846906 9.61694122 -9.53925955 10.60911671 -10.83984375 11.6015625 C-12.40412109 12.78878906 -12.40412109 12.78878906 -14 14 C-15.38177162 15.1551251 -15.38177162 15.1551251 -15.125 18.3125 C-15.03804434 22.28045864 -15.03804434 22.28045864 -14 26 C-12.22012349 27.0965664 -12.22012349 27.0965664 -10.0625 27.6875 C-9.35222656 27.91824219 -8.64195313 28.14898437 -7.91015625 28.38671875 C-7.27980469 28.58910156 -6.64945313 28.79148438 -6 29 C-5.34 29.33 -4.68 29.66 -4 30 C-3.7525 29.45859375 -3.505 28.9171875 -3.25 28.359375 C-1.72011396 25.4717151 0.09150997 22.90223982 2 20.25 C3.051875 18.77273437 3.051875 18.77273437 4.125 17.265625 C5.053125 16.14414063 5.053125 16.14414063 6 15 C6.66 15 7.32 15 8 15 C7.23591661 19.72640157 4.27701633 22.78413129 1.3984375 26.46484375 C-0.18952803 28.87094583 -0.18952803 28.87094583 -0.02734375 31.421875 C1.37005714 34.92866051 3.59413746 37.51819138 6.0625 40.3125 C6.53494141 40.86228516 7.00738281 41.41207031 7.49414062 41.97851562 C8.654381 43.3262696 9.82607224 44.66415117 11 46 C17.33536119 44.57987839 23.17817016 42.50477052 29.1875 40.0625 C30.06341797 39.71509766 30.93933594 39.36769531 31.84179688 39.00976562 C36.1148425 37.2895327 40.13855755 35.55031085 44 33 C43.505 28.545 43.505 28.545 43 24 C43.598125 24.804375 44.19625 25.60875 44.8125 26.4375 C46.80947276 29.22327984 46.80947276 29.22327984 50 30 C50.39832031 29.32453125 50.79664063 28.6490625 51.20703125 27.953125 C51.73683594 27.06109375 52.26664062 26.1690625 52.8125 25.25 C53.33457031 24.36828125 53.85664063 23.4865625 54.39453125 22.578125 C55.82546696 20.28027203 57.33894423 18.13493054 59 16 C59.40740741 26.18518519 59.40740741 26.18518519 57 31 C53 34 53 34 50 34 C50.01160156 35.15757812 50.02320313 36.31515625 50.03515625 37.5078125 C50.04454077 39.04687338 50.05364026 40.58593601 50.0625 42.125 C50.07087891 42.88554687 50.07925781 43.64609375 50.08789062 44.4296875 C50.10646509 48.7389644 49.86117265 52.75516474 49 57 C55.58093211 53.23628587 62.04853062 49.42200142 68.2578125 45.06640625 C70 44 70 44 72 44 C72 43.34 72 42.68 72 42 C72.81082031 41.69707031 73.62164062 41.39414063 74.45703125 41.08203125 C81.02227478 38.59809162 87.43397597 35.96729645 93.7578125 32.91796875 C96 32 96 32 99 32 C95.71963639 25.82197895 95.71963639 25.82197895 91.6875 20.125 C90 18 90 18 90 15 C90.66 15 91.32 15 92 15 C93.63139937 16.92587579 95.13723225 18.84326717 96.625 20.875 C97.04523438 21.43058594 97.46546875 21.98617187 97.8984375 22.55859375 C101 26.73764712 101 26.73764712 101 29 C101.94875 28.236875 102.8975 27.47375 103.875 26.6875 C104.40867188 26.25824219 104.94234375 25.82898438 105.4921875 25.38671875 C107.25292107 23.87729455 107.25292107 23.87729455 109 21 C109.66 21 110.32 21 111 21 C111 20.34 111 19.68 111 19 C111.66 19 112.32 19 113 19 C113.44951858 15.15196594 113.44951858 15.15196594 111.62304688 13.49194336 C110.99462891 13.02925049 110.36621094 12.56655762 109.71875 12.08984375 C109.04199219 11.57486328 108.36523438 11.05988281 107.66796875 10.52929688 C106.95253906 10.00400391 106.23710937 9.47871094 105.5 8.9375 C104.08738105 7.89267103 102.68077395 6.83964907 101.28125 5.77734375 C100.65283203 5.31577881 100.02441406 4.85421387 99.37695312 4.37866211 C98 3 98 3 98 0 C102.66470335 1.97792568 106.37545647 5.40741194 110.22265625 8.63085938 C113.2389125 11.27520924 113.2389125 11.27520924 117.00927734 11.78271484 C120.31842083 10.48162164 122.61670302 7.8817164 125.125 5.4375 C130.74442379 0 130.74442379 0 133 0 C133.83145577 5.93896979 132.3788871 10.06269872 129.75 15.375 C129.4502124 15.99391113 129.1504248 16.61282227 128.84155273 17.25048828 C127.01810039 20.76572877 125.66835997 22.52006078 122 24 C121.71125 24.78375 121.4225 25.5675 121.125 26.375 C119.84480512 29.36212138 118.51383664 30.13088103 115.7890625 31.76171875 C112.0907514 34.32146682 109.10571777 37.76837475 106 41 C104 43 104 43 101 44 C99.09332752 45.21228493 97.19935295 46.44459185 95.3125 47.6875 C78.85827748 57.95726008 58.39274494 62.72340225 39 62 C39 61.34 39 60.68 39 60 C37.56333984 59.79697266 37.56333984 59.79697266 36.09765625 59.58984375 C16.74778542 56.57909921 -2.14132339 48.45295215 -15.38671875 33.59375 C-17.13063464 31.87094689 -18.81034089 31.06025599 -21 30 C-21.70151152 28.6846659 -22.36525925 27.34882408 -23 26 C-24.77510021 24.1103772 -26.57767295 22.35475472 -28.5625 20.6875 C-30.82349791 18.03328507 -31.8701181 15.27665752 -33 12 C-32.6875 9.0625 -32.6875 9.0625 -32 7 C-31.34 7 -30.68 7 -30 7 C-28.35 10.3 -26.7 13.6 -25 17 C-22.08275328 17 -21.23124747 15.5414468 -19.125 13.5625 C-15.40067842 10.17730363 -11.57640453 7.02893824 -7.5625 4 C-6.55316406 3.236875 -5.54382813 2.47375 -4.50390625 1.6875 C-2 0 -2 0 0 0 Z M131 5 C132 7 132 7 132 7 Z M-30 14 C-29 16 -29 16 -29 16 Z M127 14 C128 16 128 16 128 16 Z " fill="#EBB05B" transform="translate(79,157)"/>
<path d="M0 0 C0.77923828 0.61488281 0.77923828 0.61488281 1.57421875 1.2421875 C5.2423777 4.07636576 8.51449706 6.59828033 13 8 C12.67 8.66 12.34 9.32 12 10 C9.9375 10.625 9.9375 10.625 8 11 C9.2375 12.175625 9.2375 12.175625 10.5 13.375 C13 16 13 16 13 18 C13.8353125 18.309375 13.8353125 18.309375 14.6875 18.625 C16.94696811 19.96846753 17.9998656 21.05157702 19.625 23.0625 C21.67119397 26.00824713 21.67119397 26.00824713 24 27 C24 27.66 24 28.32 24 29 C24.66 29 25.32 29 26 29 C26.66 29.66 27.32 30.32 28 31 C29.32 30.34 30.64 29.68 32 29 C32.10248047 30.11375 32.10248047 30.11375 32.20703125 31.25 C33.23632756 34.81957934 34.72982473 35.80716452 37.6875 38 C38.58597656 38.680625 39.48445313 39.36125 40.41015625 40.0625 C41.26480469 40.701875 42.11945313 41.34125 43 42 C44.21635733 42.99022436 45.4264601 43.98828287 46.625 45 C47.40875 45.66 48.1925 46.32 49 47 C48.01 47.495 48.01 47.495 47 48 C47 48.66 47 49.32 47 50 C46.34 50 45.68 50 45 50 C45 50.66 45 51.32 45 52 C43.3777546 53.70993434 41.70586575 55.37347684 40 57 C39.443125 57.598125 38.88625 58.19625 38.3125 58.8125 C37 60 37 60 35 60 C33.36860063 58.07412421 31.86276775 56.15673283 30.375 54.125 C29.95476562 53.56941406 29.53453125 53.01382813 29.1015625 52.44140625 C26 48.26235288 26 48.26235288 26 46 C25.34 46 24.68 46 24 46 C26.07440284 49.76465701 28.17361731 53.30748295 30.75 56.75 C33 60 33 60 33 63 C30.47931337 64.10450255 27.95845506 65.20861043 25.4375 66.3125 C24.73302734 66.62123047 24.02855469 66.92996094 23.30273438 67.24804688 C21.89018601 67.86644363 20.47660819 68.4824942 19.06201172 69.09619141 C17.71943008 69.68466373 16.38210861 70.28533546 15.05126953 70.89990234 C11.70364165 72.4204137 9.76331182 73 6 73 C6 73.66 6 74.32 6 75 C4.6105957 76.09741211 4.6105957 76.09741211 2.67578125 77.27734375 C1.97646484 77.70853516 1.27714844 78.13972656 0.55664062 78.58398438 C-0.18392578 79.03064453 -0.92449219 79.47730469 -1.6875 79.9375 C-2.40873047 80.38029297 -3.12996094 80.82308594 -3.87304688 81.27929688 C-5.27756144 82.13996288 -6.68487893 82.9960747 -8.09521484 83.84716797 C-9.70459536 84.82121242 -11.30110178 85.81648088 -12.89453125 86.81640625 C-15 88 -15 88 -17 88 C-17.05786668 84.20839703 -17.09355054 80.41690689 -17.125 76.625 C-17.14175781 75.54476562 -17.15851563 74.46453125 -17.17578125 73.3515625 C-17.18222656 72.3203125 -17.18867187 71.2890625 -17.1953125 70.2265625 C-17.20578613 69.27346191 -17.21625977 68.32036133 -17.22705078 67.33837891 C-17 65 -17 65 -15 63 C-14.01 63 -13.02 63 -12 63 C-9.30104814 60.92388319 -8.61484569 59.2828368 -8 56 C-7.84921279 53.62649769 -7.72745926 51.25107914 -7.625 48.875 C-7.17463907 40.60400609 -5.12292513 33.61213 -2 26 C-1.51579261 24.52247574 -1.03718131 23.04311216 -0.5625 21.5625 C0.36314945 18.68058109 1.29765265 16.47654189 2.8125 13.8125 C4.31493009 11.01453968 4.31493009 11.01453968 3.3125 7.9375 C2.879375 6.968125 2.44625 5.99875 2 5 C1.62875 4.05125 1.2575 3.1025 0.875 2.125 C0.58625 1.42375 0.2975 0.7225 0 0 Z " fill="#F2B65F" transform="translate(145,126)"/>
<path d="M0 0 C4.62027991 3.94150757 6.10460402 7.24131569 7.5625 13.0625 C7.97191879 14.57997883 8.38339155 16.09690492 8.796875 17.61328125 C8.99603516 18.35658691 9.19519531 19.09989258 9.40039062 19.86572266 C10.50673836 23.80370794 11.91106727 27.63931654 13.30078125 31.484375 C14.03083513 34.11093757 14.02265284 36.29072092 14 39 C14.680625 40.299375 14.680625 40.299375 15.375 41.625 C17.60467908 46.25587194 18.23591707 50.94806345 19 56 C11.07950257 59.89683862 3.10159221 63.51407313 -5.1875 66.5625 C-5.90542725 66.83787598 -6.62335449 67.11325195 -7.36303711 67.39697266 C-12.31518188 69.16084696 -12.31518188 69.16084696 -15.1953125 68.484375 C-17.68297959 66.43824189 -19.64689143 64.18007808 -21.6875 61.6875 C-22.47511719 60.74261719 -23.26273438 59.79773438 -24.07421875 58.82421875 C-26.03083533 55.95477902 -27.01625626 54.46258367 -27 51 C-25.3828125 48.2109375 -25.3828125 48.2109375 -23.125 45.375 C-20.01186366 41.48759531 -20.01186366 41.48759531 -18 37 C-22.85110358 41.41009417 -26.348107 46.58004353 -30 52 C-39.36888562 49.87385068 -39.36888562 49.87385068 -41.625 46.75 C-41.74875 45.8425 -41.8725 44.935 -42 44 C-42.226875 42.906875 -42.45375 41.81375 -42.6875 40.6875 C-41.60751585 34.89485775 -37.50313215 32.48312738 -33 29 C-32.030625 28.175 -31.06125 27.35 -30.0625 26.5 C-28 25 -28 25 -26 25 C-25.67 24.01 -25.34 23.02 -25 22 C-23.609375 20.59765625 -23.609375 20.59765625 -21.75 19.0625 C-17.22570006 15.23487668 -12.89374476 11.22591843 -8.56933594 7.17602539 C-5.81802684 4.61547927 -3.06841526 2.17470208 0 0 Z " fill="#FBC66E" transform="translate(105,135)"/>
<path d="M0 0 C5.88158686 5.72680825 8.5186823 11.77020566 8.75 19.9375 C8.67796145 27.70165505 6.95155956 32.46146029 1.6953125 38.12109375 C-4.20129778 43.58528594 -9.9565773 44.80383404 -17.87890625 44.62109375 C-24.70923273 43.85353217 -29.01808857 40.46756196 -33.30078125 35.2890625 C-38.31360666 27.80679213 -38.60287409 21.1413061 -37.625 12.3125 C-35.559881 5.81425889 -31.26094471 1.04031096 -25.625 -2.6875 C-16.77889449 -7.01226269 -7.92351907 -5.09369083 0 0 Z " fill="#47280F" transform="translate(178.625,90.6875)"/>
<path d="M0 0 C2.46800047 1.15173355 4.04783565 2.04783565 6 4 C5.59216523 8.46676176 4.28611682 12.61163071 2.9375 16.875 C2.57527344 18.02742188 2.21304688 19.17984375 1.83984375 20.3671875 C1.56269531 21.23601562 1.28554687 22.10484375 1 23 C2.65 23 4.3 23 6 23 C4.68 23.99 3.36 24.98 2 26 C2.28617188 26.66128906 2.57234375 27.32257813 2.8671875 28.00390625 C4.2223258 31.58801341 5.1947167 35.22670328 6.125 38.9375 C6.30675781 39.62779297 6.48851562 40.31808594 6.67578125 41.02929688 C7.7024329 45.10116713 8.54704935 48.81565445 8 53 C6.18359375 55.5234375 6.18359375 55.5234375 4 58 C2.99889965 59.86338145 2.02065988 61.73917869 1.0625 63.625 C-4.4951294 73.3598541 -13.83615258 79.81973081 -23 86 C-23.33 85.01 -23.66 84.02 -24 83 C-24.66 83 -25.32 83 -26 83 C-26 82.34 -26 81.68 -26 81 C-27.485 80.505 -27.485 80.505 -29 80 C-29 79.34 -29 78.68 -29 78 C-29.99 77.67 -30.98 77.34 -32 77 C-33.68359375 75.328125 -33.68359375 75.328125 -35.4375 73.25 C-36.01371094 72.57453125 -36.58992187 71.8990625 -37.18359375 71.203125 C-39.14722706 68.82142783 -41.07841364 66.41570856 -43 64 C-41.87722656 63.90203125 -40.75445312 63.8040625 -39.59765625 63.703125 C-25.53882687 62.65396947 -25.53882687 62.65396947 -14.125 55.125 C-8.86370409 47.38780013 -8.00502959 41.26169263 -9 32 C-10.00744522 29.08203929 -11.40621121 26.62846619 -13 24 C-14.26154572 20.46767198 -14.18770784 19.45988422 -12.75 15.9375 C-9.74 10.885 -9.74 10.885 -8 9 C-7.01 9 -6.02 9 -5 9 C-4.9175 8.443125 -4.835 7.88625 -4.75 7.3125 C-3.77389987 4.30285794 -2.04811186 2.37845248 0 0 Z " fill="#FCCF78" transform="translate(195,72)"/>
<path d="M0 0 C4.66470335 1.97792568 8.37545647 5.40741194 12.22265625 8.63085938 C15.2389125 11.27520924 15.2389125 11.27520924 19.00927734 11.78271484 C22.31842083 10.48162164 24.61670302 7.8817164 27.125 5.4375 C32.74442379 0 32.74442379 0 35 0 C35.83145577 5.93896979 34.3788871 10.06269872 31.75 15.375 C31.4502124 15.99391113 31.1504248 16.61282227 30.84155273 17.25048828 C29.01810039 20.76572877 27.66835997 22.52006078 24 24 C23.71125 24.78375 23.4225 25.5675 23.125 26.375 C21.84480512 29.36212138 20.51383664 30.13088103 17.7890625 31.76171875 C14.0907514 34.32146682 11.10571777 37.76837475 8 41 C6 43 6 43 3 44 C1.09332752 45.21228493 -0.80064705 46.44459185 -2.6875 47.6875 C-7.73425469 50.89933511 -12.83086779 53.35529729 -18.4375 55.4375 C-19.09903076 55.68395264 -19.76056152 55.93040527 -20.44213867 56.18432617 C-25.98575919 58.15802628 -31.25181901 59.14147194 -37.125 59.1875 C-37.95257813 59.20167969 -38.78015625 59.21585938 -39.6328125 59.23046875 C-42.18416934 58.98206932 -43.80085002 58.28199296 -46 57 C-42.6811607 53.36428659 -38.99935849 50.86067641 -34.875 48.25 C-33.92560547 47.63318359 -33.92560547 47.63318359 -32.95703125 47.00390625 C-28.25656665 44 -28.25656665 44 -26 44 C-26 43.34 -26 42.68 -26 42 C-25.18917969 41.69707031 -24.37835938 41.39414063 -23.54296875 41.08203125 C-16.97772522 38.59809162 -10.56602403 35.96729645 -4.2421875 32.91796875 C-2 32 -2 32 1 32 C-2.28036361 25.82197895 -2.28036361 25.82197895 -6.3125 20.125 C-8 18 -8 18 -8 15 C-7.34 15 -6.68 15 -6 15 C-4.36860063 16.92587579 -2.86276775 18.84326717 -1.375 20.875 C-0.95476562 21.43058594 -0.53453125 21.98617187 -0.1015625 22.55859375 C3 26.73764712 3 26.73764712 3 29 C3.94875 28.236875 4.8975 27.47375 5.875 26.6875 C6.40867188 26.25824219 6.94234375 25.82898438 7.4921875 25.38671875 C9.25292107 23.87729455 9.25292107 23.87729455 11 21 C11.66 21 12.32 21 13 21 C13 20.34 13 19.68 13 19 C13.66 19 14.32 19 15 19 C15.44951858 15.15196594 15.44951858 15.15196594 13.62304688 13.49194336 C12.99462891 13.02925049 12.36621094 12.56655762 11.71875 12.08984375 C11.04199219 11.57486328 10.36523438 11.05988281 9.66796875 10.52929688 C8.59482422 9.74135742 8.59482422 9.74135742 7.5 8.9375 C6.08738105 7.89267103 4.68077395 6.83964907 3.28125 5.77734375 C2.65283203 5.31577881 2.02441406 4.85421387 1.37695312 4.37866211 C0 3 0 3 0 0 Z M33 5 C34 7 34 7 34 7 Z M29 14 C30 16 30 16 30 16 Z " fill="#D89E52" transform="translate(177,157)"/>
<path d="M0 0 C11.52164009 -0.18451025 11.52164009 -0.18451025 17 1 C16.40075776 5.19469571 15.42500059 9.00999834 14 13 C14.66 13 15.32 13 16 13 C16.268125 12.278125 16.53625 11.55625 16.8125 10.8125 C17.98982498 8.02409874 19.39145884 5.55904276 21 3 C26.875 5.75 26.875 5.75 28 8 C26.96096674 9.75336863 25.92023632 11.50584522 24.859375 13.24609375 C23.78710006 15.04290282 23.78710006 15.04290282 24.25 17.4375 C24.4975 17.953125 24.745 18.46875 25 19 C24.01 19 23.02 19 22 19 C19.65073329 23.5178206 17.61035772 28.16892683 16 33 C15.319375 32.236875 14.63875 31.47375 13.9375 30.6875 C8.5862985 25.7917199 3.50674832 24.46794665 -3.578125 24.71484375 C-9.59239426 25.42297545 -15.1022484 28.36135347 -19 33 C-23.79291166 40.64798841 -24.84430348 48.09698967 -25 57 C-29.67665261 55.93616686 -33.85459683 54.80877019 -37 51 C-38.03965582 45.07396185 -38.40397141 39.10595711 -35 34 C-32.36 35.98 -29.72 37.96 -27 40 C-26.91621094 39.20851562 -26.83242187 38.41703125 -26.74609375 37.6015625 C-25.77242687 32.90145327 -23.97022597 28.76445798 -22.0625 24.375 C-21.70220703 23.529375 -21.34191406 22.68375 -20.97070312 21.8125 C-19.99514037 19.53439028 -19.01624928 17.26025596 -18 15 C-17.71511719 14.29399658 -17.43023437 13.58799316 -17.13671875 12.8605957 C-15.68855417 10.49022151 -14.44737454 9.95720884 -11.90234375 8.89453125 C-11.10119141 8.55099609 -10.30003906 8.20746094 -9.47460938 7.85351562 C-8.21874023 7.33821289 -8.21874023 7.33821289 -6.9375 6.8125 C-5.27924201 6.11234663 -3.62165236 5.41060751 -1.96484375 4.70703125 C-1.2287085 4.4025708 -0.49257324 4.09811035 0.26586914 3.78442383 C1.99044774 3.1271631 1.99044774 3.1271631 3 2 C2.01 1.34 1.02 0.68 0 0 Z " fill="#F6BE66" transform="translate(165,62)"/>
<path d="M0 0 C0.66 0.33 1.32 0.66 2 1 C1.57847656 1.47050781 1.15695313 1.94101563 0.72265625 2.42578125 C0.17480469 3.04839844 -0.37304688 3.67101562 -0.9375 4.3125 C-1.48277344 4.92738281 -2.02804688 5.54226562 -2.58984375 6.17578125 C-5.91929247 10.48285203 -5.55289636 15.82220033 -5 21 C-3.59048986 25.55648576 -1.83812717 29.98707017 2 33 C5.14921909 32.76716851 5.14921909 32.76716851 8 32 C7.88658466 29.59122743 7.88658466 29.59122743 7 27 C6.154375 26.566875 5.30875 26.13375 4.4375 25.6875 C2 24 2 24 1.6015625 22.14453125 C1.52879046 18.1493461 1.71100508 16.43349238 4 13 C7.37462715 13.54723683 9.08235 14.0549 12 16 C15.04453491 16.48219153 17.95291087 16.46284898 21 16 C23.50160818 14.12379387 24.61945652 12.76108697 26 10 C28.99324263 11.0975223 29.84610901 11.67682892 31.25 14.625 C31.4975 15.40875 31.745 16.1925 32 17 C32.99 16.67 33.98 16.34 35 16 C35.50205443 23.46108669 35.28515669 29.66178774 31 36 C26.67886007 40.71807136 22.24908635 44.60710503 15.71875 45.2109375 C7.67068632 45.52607252 1.53975406 43.31248289 -4.421875 37.84765625 C-9.56963901 31.82069492 -10.67960588 24.54475278 -10.3828125 16.828125 C-9.37667447 9.3950236 -5.39811717 4.90737925 0 0 Z " fill="#412610" transform="translate(79,90)"/>
<path d="M0 0 C5.6718636 4.09843965 10.15285863 8.13918922 12 15 C11.6875 17.4375 11.6875 17.4375 11 19 C10.34 19 9.68 19 9 19 C7.64721885 17.01310269 6.31431695 15.01254782 5 13 C4.34 12.67 3.68 12.34 3 12 C2.731875 12.78375 2.46375 13.5675 2.1875 14.375 C1 17 1 17 -2 19 C-6.08390011 19.57911659 -9.80032505 19.77816754 -13.3125 17.5 C-13.869375 17.005 -14.42625 16.51 -15 16 C-16.32 16 -17.64 16 -19 16 C-19.66 19.3 -20.32 22.6 -21 26 C-19.68 26.33 -18.36 26.66 -17 27 C-15.1875 28.25 -15.1875 28.25 -14 30 C-14.3125 32.6875 -14.3125 32.6875 -15 35 C-17.625 35.9375 -17.625 35.9375 -21 36 C-25.26918643 32.71292688 -27.96948643 28.25561923 -29 23 C-29.7422034 14.75479494 -28.25933581 9.51155863 -23 3 C-27.51520623 7.11385457 -29.93163135 10.25453153 -32 16 C-32.75 14.375 -32.75 14.375 -33 12 C-29.81071035 5.88719483 -25.07544516 1.27659988 -18.6875 -1.375 C-12.13612314 -2.48540286 -6.09278759 -2.97933481 0 0 Z " fill="#5B3718" transform="translate(102,88)"/>
<path d="M0 0 C1.52102323 0.14383922 3.04180897 0.29019014 4.5625 0.4375 C5.93728516 0.56898438 5.93728516 0.56898438 7.33984375 0.703125 C9.4473519 0.93832415 11.54154721 1.2923624 13.625 1.6875 C17.24135873 2.02234803 19.63377566 1.47747062 23.06640625 0.48046875 C25.73149945 -0.18176653 28.27096833 -0.13645158 31 0 C29.59088868 9.38942493 26.38445182 18.3214582 23.0625 27.1875 C22.83409424 27.83517334 22.60568848 28.48284668 22.37036133 29.15014648 C21.12591794 32.35729399 20.39913864 33.788555 17.30859375 35.42578125 C16.54675781 35.61527344 15.78492187 35.80476563 15 36 C11.76901303 33.10672466 10.19455303 30.66678795 8.7109375 26.60546875 C8.32679687 25.56712891 7.94265625 24.52878906 7.546875 23.45898438 C7.16015625 22.37939453 6.7734375 21.29980469 6.375 20.1875 C5.98054688 19.11951172 5.58609375 18.05152344 5.1796875 16.95117188 C0 2.80327544 0 2.80327544 0 0 Z " fill="#3D190A" transform="translate(112,138)"/>
<path d="M0 0 C0 3 0 3 -1.26928711 4.33447266 C-1.8494458 4.7732373 -2.42960449 5.21200195 -3.02734375 5.6640625 C-3.65447266 6.14617187 -4.28160156 6.62828125 -4.92773438 7.125 C-5.59095703 7.62 -6.25417969 8.115 -6.9375 8.625 C-8.23846906 9.61694122 -9.53925955 10.60911671 -10.83984375 11.6015625 C-12.40412109 12.78878906 -12.40412109 12.78878906 -14 14 C-15.38177162 15.1551251 -15.38177162 15.1551251 -15.125 18.3125 C-15.03804434 22.28045864 -15.03804434 22.28045864 -14 26 C-12.22012349 27.0965664 -12.22012349 27.0965664 -10.0625 27.6875 C-9.35222656 27.91824219 -8.64195313 28.14898437 -7.91015625 28.38671875 C-7.27980469 28.58910156 -6.64945313 28.79148438 -6 29 C-5.34 29.33 -4.68 29.66 -4 30 C-3.7525 29.45859375 -3.505 28.9171875 -3.25 28.359375 C-1.72011396 25.4717151 0.09150997 22.90223982 2 20.25 C3.051875 18.77273437 3.051875 18.77273437 4.125 17.265625 C5.053125 16.14414063 5.053125 16.14414063 6 15 C6.66 15 7.32 15 8 15 C7.23591661 19.72640157 4.27701633 22.78413129 1.3984375 26.46484375 C-0.20011791 28.8703759 -0.20011791 28.8703759 0.02734375 31.41796875 C2.69461427 38.49855435 7.79170597 44.9857016 14.67578125 48.28076172 C20.9747359 50.67624166 27.44614118 52.45021229 34 54 C34 54.66 34 55.32 34 56 C17.37121797 57.51425671 3.71809672 50.02622962 -9 40 C-11.25370513 37.94434774 -13.35821619 35.86940344 -15.38671875 33.59375 C-17.13063464 31.87094689 -18.81034089 31.06025599 -21 30 C-21.70151152 28.6846659 -22.36525925 27.34882408 -23 26 C-24.77510021 24.1103772 -26.57767295 22.35475472 -28.5625 20.6875 C-30.82349791 18.03328507 -31.8701181 15.27665752 -33 12 C-32.6875 9.0625 -32.6875 9.0625 -32 7 C-31.34 7 -30.68 7 -30 7 C-28.35 10.3 -26.7 13.6 -25 17 C-22.08275328 17 -21.23124747 15.5414468 -19.125 13.5625 C-15.40067842 10.17730363 -11.57640453 7.02893824 -7.5625 4 C-6.55316406 3.236875 -5.54382813 2.47375 -4.50390625 1.6875 C-2 0 -2 0 0 0 Z M-30 14 C-29 16 -29 16 -29 16 Z " fill="#E4AF62" transform="translate(79,157)"/>
<path d="M0 0 C5.22228306 1.28821458 8.14055255 3.68814202 11.6875 7.5625 C15.27525267 11.56835268 15.27525267 11.56835268 20 14 C20.35412344 15.32796291 20.68521554 16.66216607 21 18 C21.99808246 19.00191387 22.998321 20.00168183 24 21 C25.61713501 23.55109915 26.94594059 26.24535386 28.3125 28.9375 C28.69728516 29.65357422 29.08207031 30.36964844 29.47851562 31.10742188 C32.17950531 36.41592436 32.17950531 36.41592436 31.23046875 39.50390625 C30.82441406 39.99761719 30.41835937 40.49132812 30 41 C28.95693915 39.52181613 27.91564846 38.04238319 26.875 36.5625 C26.23691406 35.65628906 25.59882813 34.75007813 24.94140625 33.81640625 C22.68338012 30.5406782 20.55246424 27.1941786 18.45703125 23.8125 C16.87967672 21.59241056 16.87967672 21.59241056 13 20 C11.02 22.31 9.04 24.62 7 27 C6 24 6 24 6.77734375 21.95703125 C7.35162109 20.89548828 7.35162109 20.89548828 7.9375 19.8125 C8.31777344 19.09707031 8.69804687 18.38164063 9.08984375 17.64453125 C9.39019531 17.10183594 9.69054687 16.55914062 10 16 C8.02 15.01 6.04 14.02 4 13 C2.35 15.97 0.7 18.94 -1 22 C-1.66 22 -2.32 22 -3 22 C-2.3998116 17.79868118 -1.38076751 14.0075935 0 10 C-15.61095805 9.34115535 -28.41815312 11.31762747 -40.48779297 22.36132812 C-42.92405308 24.73054968 -45.26630135 27.16357655 -47.58984375 29.64453125 C-49.71342315 31.71992571 -51.27789517 32.90736859 -54 34 C-50.61354197 26.56631164 -44.28943777 21.01435813 -38 16 C-37.030625 15.154375 -36.06125 14.30875 -35.0625 13.4375 C-31.39505828 10.87029079 -27.28848016 9.54898392 -23.0625 8.1875 C-22.06005249 7.85866821 -22.06005249 7.85866821 -21.03735352 7.52319336 C-14.12627651 5.43411155 -7.99213577 5.40235927 -1 7.5 C-0.05125 7.7784375 0.8975 8.056875 1.875 8.34375 C2.57625 8.5603125 3.2775 8.776875 4 9 C3.34 7.88625 2.68 6.7725 2 5.625 C0 2.25 0 2.25 0 0 Z " fill="#B16A4F" transform="translate(182,53)"/>
<path d="M0 0 C-5 5 -5 5 -6.6875 6.5625 C-10.24424325 10.45798071 -10.38509346 14.54145808 -10.375 19.625 C-10.37556396 20.33414551 -10.37612793 21.04329102 -10.37670898 21.77392578 C-10.25144768 27.79605099 -8.84854475 32.66898855 -6 38 C-5.67 38.66 -5.34 39.32 -5 40 C-12.12647031 38.29977612 -19.0834212 36.42080258 -26 34 C-25.20228773 29.96913573 -24.34588301 25.95618619 -23.43115234 21.95019531 C-23.03052984 20.13809307 -22.67919166 18.31528722 -22.33203125 16.4921875 C-20.4089949 8.23386894 -16.7737029 4.23011535 -10.16796875 -0.68359375 C-6.06825991 -2.3871719 -4.04606878 -1.5889831 0 0 Z " fill="#FCCE76" transform="translate(80,88)"/>
<path d="M0 0 C0.66 0.33 1.32 0.66 2 1 C1.57847656 1.47050781 1.15695313 1.94101563 0.72265625 2.42578125 C0.17480469 3.04839844 -0.37304688 3.67101562 -0.9375 4.3125 C-1.48277344 4.92738281 -2.02804688 5.54226562 -2.58984375 6.17578125 C-5.91929247 10.48285203 -5.55289636 15.82220033 -5 21 C-3.56933461 25.62487376 -1.79909476 29.8603336 2 33 C2.763125 33 3.52625 33 4.3125 33 C7 33 7 33 9.875 34.5 C13.61589228 36.29562829 15.89006069 36.44035064 20 36 C23.25058324 34.58376759 23.25058324 34.58376759 26 33 C26.66 33 27.32 33 28 33 C28.33 32.01 28.66 31.02 29 30 C29.99 29.67 30.98 29.34 32 29 C32.68359375 30.75 32.68359375 30.75 33 33 C29.70162542 38.72463656 24.35443558 43.18281428 18 45 C9.98066635 46.09698432 3.80215898 44.29099496 -2.6875 39.4375 C-7.6002364 34.9341583 -9.56355417 29.49156665 -10.37890625 22.96875 C-10.67503147 15.40322814 -9.43482832 9.9039756 -4.3984375 4.1796875 C-2.98177632 2.73617019 -1.49655896 1.36050814 0 0 Z " fill="#592E0C" transform="translate(79,90)"/>
<path d="M0 0 C0 8.25 0 16.5 0 25 C-6.27 24.34 -12.54 23.68 -19 23 C-19.33 23.66 -19.66 24.32 -20 25 C-20.66 24.34 -21.32 23.68 -22 23 C-21.6607325 15.55731919 -16.92097395 10.23651732 -12 5 C-9.09585836 3.12824256 -6.29667829 1.98273074 -3 1 C-1 0 -1 0 0 0 Z " fill="#FCA81B" transform="translate(128,114)"/>
<path d="M0 0 C3.5386994 1.65139305 4.81070153 2.71605229 7 6 C7.55544077 10.28482877 7.46371025 12.29695542 5.0625 15.9375 C1.46864755 18.35784961 -0.59941509 18.66703217 -4.84375 18.43359375 C-8.03012361 17.79285558 -9.80330678 16.33398654 -12 14 C-13.58939347 10.82121306 -13.41576711 8.5043228 -13 5 C-8.98415633 0.3964719 -6.25340518 -0.90958621 0 0 Z " fill="#F8EEC6" transform="translate(98,89)"/>
<path d="M0 0 C5.43125058 2.57269764 8.19649735 5.66865659 10.33984375 11.3293457 C13 19.06878698 13 19.06878698 13 22 C5.08 23.485 5.08 23.485 -3 25 C-3.33 17.08 -3.66 9.16 -4 1 C-5.98 1.66 -7.96 2.32 -10 3 C-6.55726319 -0.59922485 -4.91345609 -1.60221394 0 0 Z " fill="#ED8C10" transform="translate(131,114)"/>
<path d="M0 0 C0.33 0 0.66 0 1 0 C1.02578125 0.7734375 1.0515625 1.546875 1.078125 2.34375 C1.45395229 9.24530572 2.51686567 14.07450852 6 20 C6.70710678 21.64991582 7.37943989 23.31562256 8 25 C8.474375 25.886875 8.94875 26.77375 9.4375 27.6875 C10.21154429 32.24576079 8.49512217 34.47128009 6.3046875 38.4140625 C4.7228351 41.5493508 4.10013892 44.48816183 3.45703125 47.9140625 C2.75058778 51.13834295 1.36190559 54.0038077 0 57 C-1.0321978 59.65556343 -2.01498647 62.32639184 -3 65 C-3.66 65 -4.32 65 -5 65 C-4.61071452 61.1850023 -4.06493736 58.14610907 -2.5 54.625 C-0.99650531 50.99155451 -0.62846154 48.27277004 -0.31640625 44.421875 C0.24318491 40.13858466 1.64283686 36.08856066 3 32 C1.60587891 32.34224609 1.60587891 32.34224609 0.18359375 32.69140625 C-1.05261719 32.97886719 -2.28882813 33.26632813 -3.5625 33.5625 C-5.38974609 33.99755859 -5.38974609 33.99755859 -7.25390625 34.44140625 C-11.17836677 35.02659692 -14.11934841 34.72535544 -18 34 C-19.64481706 33.80378471 -21.29054359 33.61486454 -22.9375 33.4375 C-23.70964844 33.35371094 -24.48179688 33.26992187 -25.27734375 33.18359375 C-26.13005859 33.09271484 -26.13005859 33.09271484 -27 33 C-27.33 34.32 -27.66 35.64 -28 37 C-28.495 35.515 -28.495 35.515 -29 34 C-29.66 33.67 -30.32 33.34 -31 33 C-31 32.34 -31 31.68 -31 31 C-25.5456923 30.90667534 -20.22740439 30.90918838 -14.8125 31.625 C-10.03485244 32.17772309 -6.60660865 31.30520578 -2 30 C1.5 29.875 1.5 29.875 4 30 C3.60167969 29.03900391 3.60167969 29.03900391 3.1953125 28.05859375 C1.16454502 23.0854369 -0.64392834 18.19827469 -2 13 C-1.34 13 -0.68 13 0 13 C0 8.71 0 4.42 0 0 Z " fill="#C0680A" transform="translate(140,106)"/>
<path d="M0 0 C2.75329021 1.79562405 4.52627461 3.05254922 6 6 C6.28394278 8.93407542 6.48994001 11.15046384 6 14 C3.30036482 17.27228507 1.70208359 17.91223955 -2.5 18.4375 C-6.21640506 17.97294937 -8.09203243 17.32637406 -11 15 C-13.08700684 12.01856166 -13.283481 9.59075933 -13 6 C-12.67 5.34 -12.34 4.68 -12 4 C-11.34 4 -10.68 4 -10 4 C-9.67 3.01 -9.34 2.02 -9 1 C-5.89951072 -0.55024464 -3.42105782 -0.28992015 0 0 Z " fill="#F9F0CB" transform="translate(168,89)"/>
<path d="M0 0 C0 0.66 0 1.32 0 2 C-1.11375 2.556875 -1.11375 2.556875 -2.25 3.125 C-5.97334371 5.66364344 -7.48705817 8.80771426 -9 13 C-9 13.99 -9 14.98 -9 16 C-11.37109375 17.75390625 -11.37109375 17.75390625 -14.4375 19.5625 C-18.38294027 21.6453516 -18.38294027 21.6453516 -21 25 C-19.68 24.34 -18.36 23.68 -17 23 C-16.16151196 24.45537568 -15.32936066 25.91440373 -14.5 27.375 C-14.0359375 28.18710938 -13.571875 28.99921875 -13.09375 29.8359375 C-12 32 -12 32 -12 34 C-15.71368887 32.76210371 -16.77354181 31.14775123 -19 28 C-19 27.34 -19 26.68 -19 26 C-25.64189563 30.98142172 -29.63462853 36.99272839 -34 44 C-35.24546405 41.50907189 -34.7767578 40.58919267 -34 38 C-33.34 38 -32.68 38 -32 38 C-31.7834375 36.824375 -31.7834375 36.824375 -31.5625 35.625 C-31 33 -31 33 -30 31 C-30.66 30.67 -31.32 30.34 -32 30 C-31.09648559 28.36765063 -30.1766431 26.74433176 -29.25 25.125 C-28.48429687 23.76761719 -28.48429687 23.76761719 -27.703125 22.3828125 C-25.85500963 19.7971465 -24.80683416 19.30502252 -22 18 C-20.24232783 16.42849871 -18.53721819 14.79714188 -16.875 13.125 C-15.57175781 11.82949219 -15.57175781 11.82949219 -14.2421875 10.5078125 C-12.29582977 8.33087581 -11.20904649 6.60410014 -10 4 C-8.125 2.875 -8.125 2.875 -6 2 C-5.29875 1.62875 -4.5975 1.2575 -3.875 0.875 C-2 0 -2 0 0 0 Z " fill="#DD904D" transform="translate(81,46)"/>
<path d="M0 0 C4.66470335 1.97792568 8.37545647 5.40741194 12.22265625 8.63085938 C15.2389125 11.27520924 15.2389125 11.27520924 19.00927734 11.78271484 C22.31842083 10.48162164 24.61670302 7.8817164 27.125 5.4375 C32.74442379 0 32.74442379 0 35 0 C36.1805666 8.43261861 31.93480979 14.85310059 28 22 C25.5625 21.625 25.5625 21.625 23 21 C22.67 20.34 22.34 19.68 22 19 C21.41734375 18.88011719 20.8346875 18.76023438 20.234375 18.63671875 C17.13979222 17.75487086 15.57169112 16.01958535 13.25 13.8125 C9.4785721 10.29287367 5.67005717 7.17620465 1.3984375 4.2890625 C0.93695313 3.86367187 0.47546875 3.43828125 0 3 C0 2.01 0 1.02 0 0 Z M33 5 C34 7 34 7 34 7 Z M29 14 C30 16 30 16 30 16 Z " fill="#D99D4E" transform="translate(177,157)"/>
<path d="M0 0 C0.90234375 0.25523438 1.8046875 0.51046875 2.734375 0.7734375 C5.04063605 1.55412835 7.10851946 2.47420438 9.25 3.625 C9.25 4.285 9.25 4.945 9.25 5.625 C11.725 6.615 11.725 6.615 14.25 7.625 C12.5 12.5 12.5 12.5 10.25 13.625 C10.58 11.975 10.91 10.325 11.25 8.625 C9.27 7.635 7.29 6.645 5.25 5.625 C3.6 8.595 1.95 11.565 0.25 14.625 C-0.41 14.625 -1.07 14.625 -1.75 14.625 C-1.1498116 10.42368118 -0.13076751 6.6325935 1.25 2.625 C-14.36095805 1.96615535 -27.16815312 3.94262747 -39.23779297 14.98632812 C-41.67405308 17.35554968 -44.01630135 19.78857655 -46.33984375 22.26953125 C-48.46342315 24.34492571 -50.02789517 25.53236859 -52.75 26.625 C-49.36354197 19.19131164 -43.03943777 13.63935813 -36.75 8.625 C-35.780625 7.779375 -34.81125 6.93375 -33.8125 6.0625 C-30.14505828 3.49529079 -26.03848016 2.17398392 -21.8125 0.8125 C-20.81005249 0.48366821 -20.81005249 0.48366821 -19.78735352 0.14819336 C-13.00679377 -1.90143566 -6.87577837 -2.00709137 0 0 Z " fill="#9E531A" transform="translate(180.75,60.375)"/>
<path d="M0 0 C2.64 0.33 5.28 0.66 8 1 C8 1.99 8 2.98 8 4 C8.99 4.33 9.98 4.66 11 5 C10.319375 5.86625 10.319375 5.86625 9.625 6.75 C7.96203342 8.87687364 7.96203342 8.87687364 7.125 11.0625 C5.58351725 13.71727585 3.65581517 14.46552901 1 16 C-1.39696429 17.93447948 -3.68934489 19.96118667 -6 22 C-7.65 18.7 -9.3 15.4 -11 12 C-5.7265625 5.75 -5.7265625 5.75 -4 4 C-3.34 4 -2.68 4 -2 4 C-2 3.34 -2 2.68 -2 2 C-1.34 2 -0.68 2 0 2 C0 1.34 0 0.68 0 0 Z " fill="#D8A057" transform="translate(192,174)"/>
<path d="M0 0 C0.66 0 1.32 0 2 0 C3.28100586 1.49707031 3.28100586 1.49707031 4.71484375 3.578125 C5.23626953 4.32707031 5.75769531 5.07601562 6.29492188 5.84765625 C6.83697266 6.64042969 7.37902344 7.43320313 7.9375 8.25 C9.00870738 9.79715701 10.08030967 11.34404069 11.15234375 12.890625 C11.8637854 13.92751465 11.8637854 13.92751465 12.58959961 14.98535156 C13.57335104 16.39056479 14.61212474 17.75814669 15.68969727 19.09277344 C17 21 17 21 16.8125 23.625 C16 26 16 26 14 28 C13.01 28.33 12.02 28.66 11 29 C9.54721586 29.99896205 8.11114307 31.02242916 6.6875 32.0625 C2.97619527 34.60340961 0.6075003 35.7088462 -4 35 C-3.125 33.83333333 -2.25 32.66666667 -1.375 31.5 C-0.83359375 30.77167969 -0.2921875 30.04335937 0.265625 29.29296875 C1.39697517 27.79724228 2.55245891 26.31938057 3.734375 24.86328125 C4.27578125 24.18652344 4.8171875 23.50976562 5.375 22.8125 C5.87773437 22.20019531 6.38046875 21.58789062 6.8984375 20.95703125 C8.36687347 18.34821415 8.46919264 16.96122522 8 14 C6.27040421 11.12976393 6.27040421 11.12976393 4 8.375 C0 3.30555556 0 3.30555556 0 0 Z " fill="#D09954" transform="translate(169,172)"/>
<path d="M0 0 C4.58822911 4.02245086 8.56433992 8.53801922 12.5 13.1875 C13.49 14.1775 13.49 14.1775 14.5 15.1875 C11.5 15.1875 11.5 15.1875 9.37109375 13.24609375 C8.16646484 11.94865234 8.16646484 11.94865234 6.9375 10.625 C-3.24144865 0.22572779 -14.5918767 -6.94974823 -29.54272461 -7.14868164 C-32.86901572 -7.11490689 -36.17835681 -6.99346119 -39.5 -6.8125 C-38.51 -2.8525 -37.52 1.1075 -36.5 5.1875 C-39.5 4.1875 -39.5 4.1875 -40.66796875 2.33984375 C-41.00441406 1.60894531 -41.34085938 0.87804687 -41.6875 0.125 C-42.03167969 -0.60847656 -42.37585938 -1.34195313 -42.73046875 -2.09765625 C-42.98441406 -2.66355469 -43.23835938 -3.22945313 -43.5 -3.8125 C-46.98249231 -2.55493333 -49.56465849 -1.0393108 -52.5 1.1875 C-53.16 1.1875 -53.82 1.1875 -54.5 1.1875 C-52.86449284 -3.71902148 -48.99676322 -5.56105102 -44.5 -7.8125 C-28.83798187 -12.84092699 -13.12770508 -10.14505802 0 0 Z " fill="#C36D25" transform="translate(114.5,69.8125)"/>
<path d="M0 0 C0 8.25 0 16.5 0 25 C-0.66 25 -1.32 25 -2 25 C-2.7734375 23.4840625 -2.7734375 23.4840625 -3.5625 21.9375 C-5.69036621 18.12892787 -8.42459538 15.51153513 -11.70703125 12.67578125 C-13 11 -13 11 -12.9765625 8.9921875 C-11.6640889 6.31474135 -10.07991393 5.37933843 -7.5625 3.8125 C-6.75941406 3.30332031 -5.95632812 2.79414062 -5.12890625 2.26953125 C-1.32307692 0 -1.32307692 0 0 0 Z " fill="#FDB328" transform="translate(128,114)"/>
<path d="M0 0 C0.66 0 1.32 0 2 0 C1.23591661 4.72640157 -1.72298367 7.78413129 -4.6015625 11.46484375 C-6.19824765 13.87545412 -6.19824765 13.87545412 -5.99609375 16.453125 C-4.68513749 19.80506021 -2.77308965 22.0821628 -0.4375 24.8125 C0.80193359 26.27623047 0.80193359 26.27623047 2.06640625 27.76953125 C2.70449219 28.50558594 3.34257813 29.24164063 4 30 C2 31 2 31 -1.00390625 30.07421875 C-2.17824219 29.61660156 -3.35257813 29.15898437 -4.5625 28.6875 C-6.32787109 28.01267578 -6.32787109 28.01267578 -8.12890625 27.32421875 C-11 26 -11 26 -12 24 C-12.99 23.67 -13.98 23.34 -15 23 C-13.4441739 18.3676816 -10.92381299 14.83103269 -8.0625 10.9375 C-7.61970703 10.32583984 -7.17691406 9.71417969 -6.72070312 9.08398438 C-5.86668398 7.90668525 -5.00832323 6.73251958 -4.14501953 5.56201172 C-3.17937199 4.24469552 -2.24076803 2.90761774 -1.30859375 1.56640625 C-0.87675781 1.04949219 -0.44492188 0.53257812 0 0 Z " fill="#E5AA57" transform="translate(85,172)"/>
<path d="M0 0 C1.72251754 4.0845326 0.07280563 7.36973696 -1.4375 11.25 C-1.68048828 11.8996875 -1.92347656 12.549375 -2.17382812 13.21875 C-2.77285994 14.81616817 -3.38514321 16.40860594 -4 18 C-3.34 18 -2.68 18 -2 18 C-1.67 17.34 -1.34 16.68 -1 16 C-1.56594717 23.35731317 -5.58443202 29.29333027 -10 35 C-13.59950927 33.57247607 -14.89823164 32.02291657 -16.6875 28.625 C-17.10386719 27.85414063 -17.52023438 27.08328125 -17.94921875 26.2890625 C-18.9146181 24.18599922 -19.53065848 22.25902842 -20 20 C-19.01 20 -18.02 20 -17 20 C-13 26.75 -13 26.75 -13 29 C-12.34 29 -11.68 29 -11 29 C-11 27.02 -11 25.04 -11 23 C-10.360625 22.79375 -9.72125 22.5875 -9.0625 22.375 C-8.381875 21.92125 -7.70125 21.4675 -7 21 C-6.6412089 19.00440985 -6.31336668 17.00322551 -6 15 C-5.21489331 12.54654159 -4.3795139 10.10871994 -3.5 7.6875 C-3.0565625 6.45386719 -2.613125 5.22023437 -2.15625 3.94921875 C-1 1 -1 1 0 0 Z " fill="#C26708" transform="translate(139,153)"/>
<path d="M0 0 C0.66 0.33 1.32 0.66 2 1 C1.57847656 1.47050781 1.15695313 1.94101563 0.72265625 2.42578125 C0.17480469 3.04839844 -0.37304688 3.67101562 -0.9375 4.3125 C-1.48277344 4.92738281 -2.02804688 5.54226562 -2.58984375 6.17578125 C-5.91012041 10.47098679 -5.57403402 15.83369378 -5 21 C-4.12660449 23.49051209 -3.09656294 25.75275631 -1.875 28.08984375 C-1 30 -1 30 -1 33 C-1.99 31.68 -2.98 30.36 -4 29 C-1.7087586 36.23339137 -1.7087586 36.23339137 3 42 C-2.45233855 40.44218899 -5.30520358 37.02497529 -7.98046875 32.25 C-10.81483659 25.86269218 -11.29365957 18.37066905 -9.30859375 11.6640625 C-7.10681316 6.85515259 -3.88467809 3.53152554 0 0 Z " fill="#4B250A" transform="translate(79,90)"/>
<path d="M0 0 C0.84304687 -0.01417969 1.68609375 -0.02835937 2.5546875 -0.04296875 C9.68206793 0.59611247 14.40458996 5.16752547 19.125 10.1875 C21.14517817 13.24856265 22.29237855 15.88194732 21.8125 19.625 C21.585625 20.140625 21.35875 20.65625 21.125 21.1875 C20.465 21.1875 19.805 21.1875 19.125 21.1875 C17.77221885 19.20060269 16.43931695 17.20004782 15.125 15.1875 C14.465 14.8575 13.805 14.5275 13.125 14.1875 C12.6609375 12.764375 12.6609375 12.764375 12.1875 11.3125 C11.12466345 8.18651016 10.62594182 7.1803498 8.125 5.1875 C2.59872982 3.38083475 -3.09919207 2.93637792 -8.875 3.1875 C-7.06744218 -0.42761565 -3.62849047 0.02757212 0 0 Z " fill="#4D2D12" transform="translate(91.875,85.8125)"/>
<path d="M0 0 C0.33 0 0.66 0 1 0 C1.14695312 1.485 1.14695312 1.485 1.296875 3 C2.10285568 10.35527176 3.06877567 16.57900026 7 23 C-0.12647031 21.29977612 -7.0834212 19.42080258 -14 17 C-11.14415227 15.09610151 -9.0688238 14.30537823 -5.8125 13.375 C-4.46091797 12.98441406 -4.46091797 12.98441406 -3.08203125 12.5859375 C-2.39496094 12.39257812 -1.70789063 12.19921875 -1 12 C-1.020625 10.7625 -1.04125 9.525 -1.0625 8.25 C-1.06766681 5.3359175 -0.93015558 2.79046673 0 0 Z " fill="#F1BB65" transform="translate(68,105)"/>
<path d="M0 0 C2.64 0 5.28 0 8 0 C7.34537156 3.33581942 6.67473716 6.66819441 6 10 C5.84402344 10.79921875 5.68804687 11.5984375 5.52734375 12.421875 C4.5335142 17.26575013 3.0562803 21.47618333 1 26 C-0.0321978 28.65556343 -1.01498647 31.32639184 -2 34 C-2.66 34 -3.32 34 -4 34 C-3.61071452 30.1850023 -3.06493736 27.14610907 -1.5 23.625 C0.00349469 19.99155451 0.37153846 17.27277004 0.68359375 13.421875 C1.24318491 9.13858466 2.64283686 5.08856066 4 1 C2.68 0.67 1.36 0.34 0 0 Z " fill="#B95F08" transform="translate(139,137)"/>
<path d="M0 0 C-0.185625 0.639375 -0.37125 1.27875 -0.5625 1.9375 C-1.06973327 5.48813287 -0.59537929 8.40667674 0.0390625 11.9140625 C0 14 0 14 -1.4765625 15.7734375 C-1.97929687 16.17820312 -2.48203125 16.58296875 -3 17 C-3.66 16.67 -4.32 16.34 -5 16 C-4.34 15.34 -3.68 14.68 -3 14 C-2.44019128 9.12166689 -2.25450039 7.08436307 -5.0625 3 C-8.79836042 0.45643546 -10.55999051 0.22105097 -15 1 C-17.31734751 2.47375171 -19.01485159 4.06326984 -21 6 C-21 4.02 -21 2.04 -21 0 C-21.66 -0.33 -22.32 -0.66 -23 -1 C-15.02197022 -4.35917043 -7.57203354 -3.95062619 0 0 Z " fill="#4B2D11" transform="translate(176,89)"/>
<path d="M0 0 C-1.01578125 0.44988281 -2.0315625 0.89976563 -3.078125 1.36328125 C-11.7510031 5.35923423 -18.55900231 9.66227879 -25.3515625 16.38671875 C-28.11841842 19.1168465 -30.98712067 21.54817004 -34 24 C-34 18.43782642 -28.74521314 14.76695603 -25 11 C-18.50549354 4.77252171 -9.66764093 -3.22254698 0 0 Z " fill="#A35417" transform="translate(163,63)"/>
<path d="M0 0 C1.72725892 0.20432874 3.45673072 0.39042063 5.1875 0.5625 C6.44626953 0.68818359 6.44626953 0.68818359 7.73046875 0.81640625 C10.11888114 1.04031581 10.11888114 1.04031581 13 1 C15.01151741 1.63106429 17.01363702 2.29373761 19 3 C19 3.33 19 3.66 19 4 C5.3667426 6.29612756 5.3667426 6.29612756 -1 6 C-1 5.34 -1 4.68 -1 4 C-6.28 3.01 -11.56 2.02 -17 1 C-17 0.67 -17 0.34 -17 0 C-11.11714486 -0.68040139 -5.83953494 -1.24245424 0 0 Z " fill="#DEAD71" transform="translate(119,213)"/>
<path d="M0 0 C5.25687856 1.29472083 8.26398026 3.75885386 11.875 7.625 C12.37257812 8.140625 12.87015625 8.65625 13.3828125 9.1875 C14.5979334 10.44935632 15.80031125 11.72346286 17 13 C16.34 14.65 15.68 16.3 15 18 C14.34 17.67 13.68 17.34 13 17 C13 16.34 13 15.68 13 15 C10.525 14.01 10.525 14.01 8 13 C8 12.34 8 11.68 8 11 C7.38125 10.938125 6.7625 10.87625 6.125 10.8125 C4 10 4 10 2.875 7.75 C2.58625 6.8425 2.2975 5.935 2 5 C1.62875 4.071875 1.2575 3.14375 0.875 2.1875 C0.58625 1.465625 0.2975 0.74375 0 0 Z " fill="#BF6E30" transform="translate(182,53)"/>
<path d="M0 0 C-2.15647234 3.23470852 -2.99132007 3.68888162 -6.4296875 5.15625 C-7.30753906 5.53910156 -8.18539062 5.92195313 -9.08984375 6.31640625 C-10.00894531 6.70699219 -10.92804688 7.09757812 -11.875 7.5 C-13.68692244 8.27653819 -15.49689756 9.0576393 -17.3046875 9.84375 C-18.10890137 10.18599609 -18.91311523 10.52824219 -19.74169922 10.88085938 C-22.06447628 12.03195235 -23.9795351 13.38362808 -26 15 C-26.66 14.67 -27.32 14.34 -28 14 C-27.54109375 13.61328125 -27.0821875 13.2265625 -26.609375 12.828125 C-25.99578125 12.30734375 -25.3821875 11.7865625 -24.75 11.25 C-23.77933594 10.42628906 -23.77933594 10.42628906 -22.7890625 9.5859375 C-20.91018952 7.98546993 -20.91018952 7.98546993 -19.125 5.875 C-13.47319117 0.88810985 -7.35682579 -0.53504188 0 0 Z " fill="#FAD784" transform="translate(169,63)"/>
<path d="M0 0 C1.125 1.75390625 1.125 1.75390625 2 4 C0.05572668 9.55664478 -4.29493209 13.69644168 -9 17 C-11.1875 17.9375 -11.1875 17.9375 -13 18 C-13.99 17.34 -14.98 16.68 -16 16 C-15.41992188 15.5875 -14.83984375 15.175 -14.2421875 14.75 C-8.77066158 10.70504354 -4.82557368 6.60173288 -1 1 C-0.67 0.67 -0.34 0.34 0 0 Z " fill="#603410" transform="translate(184,116)"/>
<path d="M0 0 C0.99 3.3 1.98 6.6 3 10 C-4.92 11.485 -4.92 11.485 -13 13 C-11.74615087 9.23845262 -9.85799698 7.72808802 -7 5 C-6.113125 4.071875 -5.22625 3.14375 -4.3125 2.1875 C-2 0 -2 0 0 0 Z " fill="#E58108" transform="translate(141,126)"/>
<path d="M0 0 C8.10345611 0.49612997 15.40525933 3.320085 23 6 C23 6.66 23 7.32 23 8 C20.93816367 8.08150744 18.87538651 8.1394194 16.8125 8.1875 C15.66394531 8.22230469 14.51539062 8.25710937 13.33203125 8.29296875 C9.70842376 7.97436317 7.85360856 7.21947332 5 5 C5 4.34 5 3.68 5 3 C3.35 2.67 1.7 2.34 0 2 C0 1.34 0 0.68 0 0 Z " fill="#D8A057" transform="translate(90,205)"/>
<path d="M0 0 C0.66 0.33 1.32 0.66 2 1 C0.8553125 1.680625 0.8553125 1.680625 -0.3125 2.375 C-4.08923404 6.06390301 -4.76143313 9.98715166 -6 15 C-6.33 15.99 -6.66 16.98 -7 18 C-6.01 18.66 -5.02 19.32 -4 20 C-5.98 20 -7.96 20 -10 20 C-10.33 20.66 -10.66 21.32 -11 22 C-11.66 21.34 -12.32 20.68 -13 20 C-12.80587525 14.77356455 -10.77658078 11.80931764 -7.625 7.75 C-6.83351563 6.71359375 -6.04203125 5.6771875 -5.2265625 4.609375 C-3 2 -3 2 0 0 Z " fill="#ED9118" transform="translate(119,117)"/>
<path d="M0 0 C0 0.99 0 1.98 0 3 C-2.1455906 4.92240157 -4.26514965 6.65256914 -6.5625 8.375 C-7.17158203 8.84421875 -7.78066406 9.3134375 -8.40820312 9.796875 C-12.53789824 12.96078957 -16.75405657 15.99450594 -21 19 C-21 15 -21 15 -19.57885742 13.38427734 C-18.92763916 12.8733252 -18.2764209 12.36237305 -17.60546875 11.8359375 C-16.54295898 10.98902344 -16.54295898 10.98902344 -15.45898438 10.125 C-14.70939453 9.5475 -13.95980469 8.97 -13.1875 8.375 C-12.08051758 7.49714844 -12.08051758 7.49714844 -10.95117188 6.6015625 C-2.58565976 0 -2.58565976 0 0 0 Z " fill="#C0762F" transform="translate(79,157)"/>
<path d="M0 0 C0.66 0 1.32 0 2 0 C1.41082439 4.15470386 -0.98251603 7.12512109 -3.375 10.4375 C-6.66498369 15.04826147 -6.66498369 15.04826147 -9.65234375 19.859375 C-11 22 -11 22 -13.1875 22.8125 C-13.785625 22.874375 -14.38375 22.93625 -15 23 C-13.4441739 18.3676816 -10.92381299 14.83103269 -8.0625 10.9375 C-7.61970703 10.32583984 -7.17691406 9.71417969 -6.72070312 9.08398438 C-5.86668398 7.90668525 -5.00832323 6.73251958 -4.14501953 5.56201172 C-3.17937199 4.24469552 -2.24076803 2.90761774 -1.30859375 1.56640625 C-0.87675781 1.04949219 -0.44492188 0.53257812 0 0 Z " fill="#B7702B" transform="translate(85,172)"/>
<path d="M0 0 C4.19281918 1.77590587 7.53144285 4.62512115 11.0625 7.4375 C11.68705078 7.92798828 12.31160156 8.41847656 12.95507812 8.92382812 C19.12924179 13.80649117 19.12924179 13.80649117 21 16 C21 16.99 21 17.98 21 19 C18.1958531 17.70324932 15.97199514 16.28546588 13.65234375 14.25 C13.04712891 13.7240625 12.44191406 13.198125 11.81835938 12.65625 C11.19767578 12.1096875 10.57699219 11.563125 9.9375 11 C8.69790296 9.91519268 7.45706251 8.83180417 6.21484375 7.75 C5.66948975 7.27046875 5.12413574 6.7909375 4.56225586 6.296875 C2.81919476 4.80388257 2.81919476 4.80388257 0 3 C0 2.01 0 1.02 0 0 Z " fill="#B66C2A" transform="translate(177,157)"/>
<path d="M0 0 C7.02952752 0.4535179 12.5849443 2.12059087 19 5 C19 6.65 19 8.3 19 10 C14.69310762 8.65692112 10.72476571 7.01109126 6.6875 5 C5.63949219 4.484375 4.59148437 3.96875 3.51171875 3.4375 C1 2 1 2 0 0 Z " fill="#FCDF8E" transform="translate(89,63)"/>
<path d="M0 0 C0.33 0 0.66 0 1 0 C1.40740741 10.18518519 1.40740741 10.18518519 -1 15 C-3.625 16.875 -3.625 16.875 -6 18 C-6.99 17.01 -7.98 16.02 -9 15 C-8.60167969 14.41992188 -8.20335937 13.83984375 -7.79296875 13.2421875 C-4.87248393 8.9360712 -2.18115554 4.725837 0 0 Z " fill="#D4984A" transform="translate(137,173)"/>
<path d="M0 0 C0.66 0.33 1.32 0.66 2 1 C2.625 3.0625 2.625 3.0625 3 5 C8.47621693 6.94679922 8.47621693 6.94679922 14 6 C13.67 6.99 13.34 7.98 13 9 C10.9375 9.6875 10.9375 9.6875 9 10 C9 11.98 9 13.96 9 16 C8.34 16 7.68 16 7 16 C3 9.25 3 9.25 3 7 C1.68 7.33 0.36 7.66 -1 8 C-1.04241723 5.66705225 -1.04092937 3.33297433 -1 1 C-0.67 0.67 -0.34 0.34 0 0 Z " fill="#F5960F" transform="translate(119,166)"/>
<path d="M0 0 C0.144375 1.216875 0.28875 2.43375 0.4375 3.6875 C0.82780953 6.82670377 1.32351856 9.9075134 2 13 C-1 12 -1 12 -2.16796875 10.15234375 C-2.50441406 9.42144531 -2.84085938 8.69054687 -3.1875 7.9375 C-3.53167969 7.20402344 -3.87585938 6.47054687 -4.23046875 5.71484375 C-4.48441406 5.14894531 -4.73835938 4.58304687 -5 4 C-8.48249231 5.25756667 -11.06465849 6.7731892 -14 9 C-14.66 9 -15.32 9 -16 9 C-13.8949429 2.6848287 -6.4442098 -0.99141689 0 0 Z " fill="#B6621F" transform="translate(76,62)"/>
<path d="M0 0 C0.86496094 0.10183594 1.72992188 0.20367187 2.62109375 0.30859375 C3.58208984 0.43427734 3.58208984 0.43427734 4.5625 0.5625 C4.5625 0.8925 4.5625 1.2225 4.5625 1.5625 C3.70253418 1.62981323 3.70253418 1.62981323 2.82519531 1.69848633 C-11.76208293 2.87116163 -11.76208293 2.87116163 -26.0390625 5.96484375 C-29.28349768 6.7733105 -32.11534495 6.78901057 -35.4375 6.5625 C-33.10650773 4.23150773 -32.07504938 4.10864193 -28.89453125 3.52734375 C-27.98509766 3.35783203 -27.07566406 3.18832031 -26.13867188 3.01367188 C-25.18541016 2.84416016 -24.23214844 2.67464844 -23.25 2.5 C-22.31607422 2.32662109 -21.38214844 2.15324219 -20.41992188 1.97460938 C-5.78571124 -0.71330686 -5.78571124 -0.71330686 0 0 Z " fill="#E9B685" transform="translate(131.4375,32.4375)"/>
<path d="M0 0 C0.66 0 1.32 0 2 0 C3.31274414 1.49707031 3.31274414 1.49707031 4.78515625 3.578125 C5.31560547 4.32707031 5.84605469 5.07601562 6.39257812 5.84765625 C6.94365234 6.64042969 7.49472656 7.43320313 8.0625 8.25 C8.61744141 9.02730469 9.17238281 9.80460938 9.74414062 10.60546875 C14.2337337 17.00354901 14.2337337 17.00354901 15 21 C14.34 21.33 13.68 21.66 13 22 C12.56429687 21.29875 12.12859375 20.5975 11.6796875 19.875 C8.36409015 14.59300941 4.99798689 9.50143553 1.06640625 4.65625 C0 3 0 3 0 0 Z " fill="#B86D2A" transform="translate(169,172)"/>
<path d="M0 0 C1 1 2 2 3 3 C3.66 3.56589844 4.32 4.13179688 5 4.71484375 C9.32032388 9.65115131 10.17429889 17.87035919 10.1875 24.3125 C10.125625 25.199375 10.06375 26.08625 10 27 C8 26 8 26 7.36157227 24.3293457 C7.18166748 23.61866943 7.0017627 22.90799316 6.81640625 22.17578125 C6.61080078 21.39396484 6.40519531 20.61214844 6.19335938 19.80664062 C5.98517578 18.98357422 5.77699219 18.16050781 5.5625 17.3125 C4.17056505 11.83697038 2.65052762 7.03059324 0 2 C0 1.34 0 0.68 0 0 Z " fill="#DFAC6A" transform="translate(207,87)"/>
<path d="M0 0 C4.38889325 0.66498383 7.9811485 2.18757677 12 4 C11.67 4.99 11.34 5.98 11 7 C12.65 7.33 14.3 7.66 16 8 C16.33 8.99 16.66 9.98 17 11 C3.93592058 7.16787004 3.93592058 7.16787004 0.625 1.75 C0.41875 1.1725 0.2125 0.595 0 0 Z " fill="#D8A666" transform="translate(79,200)"/>
<path d="M0 0 C-3.39897673 2.26598448 -4.56319173 2.23742654 -8.54296875 2.1953125 C-10.15268555 2.18564453 -10.15268555 2.18564453 -11.79492188 2.17578125 C-13.47424805 2.15064453 -13.47424805 2.15064453 -15.1875 2.125 C-16.31865234 2.11597656 -17.44980469 2.10695313 -18.61523438 2.09765625 C-21.41036828 2.07406862 -24.20507845 2.041153 -27 2 C-18.58379998 -3.61080001 -9.24072197 -2.64020628 0 0 Z " fill="#B25E1C" transform="translate(183,61)"/>
<path d="M0 0 C0.66 0 1.32 0 2 0 C3.25512743 3.58705816 3.01900739 4.95292176 1.56640625 8.55078125 C0.91261433 9.81213737 0.24416656 11.06598733 -0.4375 12.3125 C-0.77587891 12.95767578 -1.11425781 13.60285156 -1.46289062 14.26757812 C-2.29603295 15.85172198 -3.14634904 17.42681282 -4 19 C-4.66 18.67 -5.32 18.34 -6 18 C-6 16.35 -6 14.7 -6 13 C-5.34 13 -4.68 13 -4 13 C-3.896875 12.154375 -3.79375 11.30875 -3.6875 10.4375 C-2.9171146 6.58557299 -1.63725486 3.55924969 0 0 Z M1 2 C2 4 2 4 2 4 Z M-3 11 C-2 13 -2 13 -2 13 Z " fill="#D5965A" transform="translate(209,160)"/>
<path d="M0 0 C-0.474375 1.216875 -0.94875 2.43375 -1.4375 3.6875 C-3.46545278 9.67570019 -3.71868388 15.72374026 -4 22 C-4.33 22 -4.66 22 -5 22 C-7.63209076 8.79254457 -7.63209076 8.79254457 -7 5 C-2.86956522 0 -2.86956522 0 0 0 Z " fill="#EEB058" transform="translate(144,97)"/>
<path d="M0 0 C-0.75315568 7.40603086 -0.75315568 7.40603086 -2 10.40625 C-3.10876765 13.28211609 -3.40328346 15.74542125 -3.625 18.8125 C-3.69976562 19.78832031 -3.77453125 20.76414062 -3.8515625 21.76953125 C-3.90054688 22.50558594 -3.94953125 23.24164063 -4 24 C-4.33 24 -4.66 24 -5 24 C-5.1954384 21.10450497 -5.38161395 18.20891002 -5.5625 15.3125 C-5.61857422 14.49587891 -5.67464844 13.67925781 -5.73242188 12.83789062 C-5.98341571 8.70485877 -6.11127743 5.04175718 -5 1 C-2 0 -2 0 0 0 Z M-5 6 C-4 10 -4 10 -4 10 Z " fill="#F7C487" transform="translate(42,106)"/>
<path d="M0 0 C0.66 0.33 1.32 0.66 2 1 C1.67 3.31 1.34 5.62 1 8 C0.13375 7.690625 -0.7325 7.38125 -1.625 7.0625 C-4.95478205 6.62601635 -4.95478205 6.62601635 -6.734375 8.4921875 C-8.24158629 10.27930945 -9.65542766 12.08803721 -11 14 C-11.33 13.01 -11.66 12.02 -12 11 C-10.85546875 9.17578125 -10.85546875 9.17578125 -9.1875 7.3125 C-8.64480469 6.68988281 -8.10210937 6.06726563 -7.54296875 5.42578125 C-6 4 -6 4 -4 4 C-2.62689293 2.70766393 -1.28965176 1.37562854 0 0 Z " fill="#AD6630" transform="translate(200,66)"/>
<path d="M0 0 C2.64 0 5.28 0 8 0 C7.71682074 1.60568666 7.42312209 3.20952047 7.125 4.8125 C6.96257812 5.70582031 6.80015625 6.59914062 6.6328125 7.51953125 C6 10 6 10 4 13 C3.01 13 2.02 13 1 13 C1.99 9.04 2.98 5.08 4 1 C2.68 0.67 1.36 0.34 0 0 Z " fill="#AE5906" transform="translate(139,137)"/>
<path d="M0 0 C6.30056699 -0.10780438 12.43359665 0.06714914 18.6953125 0.77734375 C21.81541328 1.07877722 24.86792395 1.06808861 28 1 C24.05947859 3.62701427 20.68654315 3.96094547 16 4 C13.645752 3.411438 11.30657014 2.75407101 9 2 C6.20755955 1.83071457 6.20755955 1.83071457 4 2 C3.67 3.32 3.34 4.64 3 6 C2.67 5.01 2.34 4.02 2 3 C1.34 2.67 0.68 2.34 0 2 C0 1.34 0 0.68 0 0 Z " fill="#AE5902" transform="translate(109,137)"/>
<path d="M0 0 C0.99 0 1.98 0 3 0 C7 6.75 7 6.75 7 9 C7.66 9 8.32 9 9 9 C9 10.98 9 12.96 9 15 C4.73347598 11.2075342 2.10519025 7.32766024 0 2 C0 1.34 0 0.68 0 0 Z " fill="#E3820A" transform="translate(119,173)"/>
<path d="M0 0 C2.475 0.99 2.475 0.99 5 2 C4.75 4.875 4.75 4.875 4 8 C1.9375 9.375 1.9375 9.375 0 10 C-0.33 9.34 -0.66 8.68 -1 8 C-1.33 8.66 -1.66 9.32 -2 10 C-3 9 -3 9 -3.125 6.5625 C-3 4 -3 4 -2 2 C-1.34 2 -0.68 2 0 2 C0 1.34 0 0.68 0 0 Z " fill="#F6F5DF" transform="translate(158,91)"/>
<path d="M0 0 C1.2065625 0.0309375 1.2065625 0.0309375 2.4375 0.0625 C1.91378492 2.41921787 1.29234789 4.36808339 0.25 6.5625 C-0.85899058 9.02980393 -0.85899058 9.02980393 0.375 11.1875 C0.9009375 12.115625 0.9009375 12.115625 1.4375 13.0625 C1.1075 14.0525 0.7775 15.0425 0.4375 16.0625 C-2.54282443 10.94006738 -4.18482333 7.16126859 -3.5625 1.0625 C-2.5625 0.0625 -2.5625 0.0625 0 0 Z " fill="#562510" transform="translate(124.5625,156.9375)"/>
<path d="M0 0 C0.33 0 0.66 0 1 0 C1.33 6.6 1.66 13.2 2 20 C0.68 20.33 -0.64 20.66 -2 21 C-2.28307925 13.75002578 -1.50974035 7.09038772 0 0 Z " fill="#D7A25D" transform="translate(216,130)"/>
<path d="M0 0 C0.66 0 1.32 0 2 0 C6.59225513 9.41002278 6.59225513 9.41002278 6 14 C5.01 14 4.02 14 3 14 C-1.07877462 5.96498906 -1.07877462 5.96498906 -0.75 1.9375 C-0.5025 1.298125 -0.255 0.65875 0 0 Z M2 7 C3 9 3 9 3 9 Z " fill="#E7B170" transform="translate(47,164)"/>
<path d="M0 0 C1.046875 1.87890625 1.046875 1.87890625 2 4 C1.25 5.9375 1.25 5.9375 0 8 C-0.28875 8.845625 -0.5775 9.69125 -0.875 10.5625 C-2.15426972 13.33425106 -3.45231855 14.38646842 -6 16 C-5.52412884 9.97229862 -2.80277043 5.23321711 0 0 Z " fill="#E0A14E" transform="translate(150,135)"/>
<path d="M0 0 C1.4540625 0.0309375 1.4540625 0.0309375 2.9375 0.0625 C1.54969205 3.95256773 -0.2777227 7.02808708 -2.6875 10.375 C-3.31914063 11.25800781 -3.95078125 12.14101562 -4.6015625 13.05078125 C-5.08367188 13.71464844 -5.56578125 14.37851563 -6.0625 15.0625 C-7.30796405 12.57157189 -6.8392578 11.65169267 -6.0625 9.0625 C-5.4025 9.0625 -4.7425 9.0625 -4.0625 9.0625 C-3.8459375 7.886875 -3.8459375 7.886875 -3.625 6.6875 C-3.0625 4.0625 -3.0625 4.0625 -2.0625 2.0625 C-2.7225 1.7325 -3.3825 1.4025 -4.0625 1.0625 C-3.0625 0.0625 -3.0625 0.0625 0 0 Z " fill="#D78547" transform="translate(53.0625,74.9375)"/>
<path d="M0 0 C2.475 0.99 2.475 0.99 5 2 C4.814375 2.639375 4.62875 3.27875 4.4375 3.9375 C3.93026673 7.48813287 4.40462071 10.40667674 5.0390625 13.9140625 C5 16 5 16 3.5234375 17.7734375 C2.76933594 18.38058594 2.76933594 18.38058594 2 19 C1.34 18.67 0.68 18.34 0 18 C0.66 17.34 1.32 16.68 2 16 C2.59420843 10.12435706 2.59420843 10.12435706 0 5 C-0.66 4.34 -1.32 3.68 -2 3 C-1.34 2.34 -0.68 1.68 0 1 C0 0.67 0 0.34 0 0 Z " fill="#5E4329" transform="translate(171,87)"/>
<path d="M0 0 C-1.30911878 1.50295185 -2.62238392 3.00229311 -3.9375 4.5 C-4.66839844 5.3353125 -5.39929688 6.170625 -6.15234375 7.03125 C-6.76207031 7.6809375 -7.37179688 8.330625 -8 9 C-8.33 9 -8.66 9 -9 9 C-9 6.36 -9 3.72 -9 1 C-3.375 -1.125 -3.375 -1.125 0 0 Z " fill="#C86B20" transform="translate(138,75)"/>
<path d="M0 0 C0.33 0.66 0.66 1.32 1 2 C0.67 2.66 0.34 3.32 0 4 C0.5775 4.12375 1.155 4.2475 1.75 4.375 C5.17140155 5.32538932 7.48155568 6.48155568 10 9 C10.33 9.99 10.66 10.98 11 12 C5.97619887 10.43006215 1.9530017 7.39884258 -2 4 C-2.33 3.34 -2.66 2.68 -3 2 C-2.01 1.34 -1.02 0.68 0 0 Z " fill="#DDAF6E" transform="translate(70,191)"/>
<path d="M0 0 C0.66 0 1.32 0 2 0 C1.36610765 3.49844386 -0.05177694 5.84086876 -2.0625 8.75 C-2.61035156 9.54921875 -3.15820312 10.3484375 -3.72265625 11.171875 C-4.14417969 11.77515625 -4.56570312 12.3784375 -5 13 C-5.66 11.68 -6.32 10.36 -7 9 C-5.88266271 7.49428343 -4.75589965 5.99555708 -3.625 4.5 C-2.99851562 3.6646875 -2.37203125 2.829375 -1.7265625 1.96875 C-1.15679687 1.3190625 -0.58703125 0.669375 0 0 Z " fill="#C57C34" transform="translate(85,172)"/>
<path d="M0 0 C0.66 0 1.32 0 2 0 C1.25 7.75 1.25 7.75 -1 10 C-1.39764263 11.98821313 -1.73775349 13.98944339 -2 16 C-2.33 16 -2.66 16 -3 16 C-3.32712342 9.86946489 -3.39366878 5.37330889 0 0 Z " fill="#381C08" transform="translate(144,97)"/>
<path d="M0 0 C1.64680455 4.04215662 0.24159458 6.77818603 -1.3125 10.6875 C-1.98732422 12.42580078 -1.98732422 12.42580078 -2.67578125 14.19921875 C-4 17 -4 17 -6 18 C-4.83805848 11.53287812 -2.8751252 5.90377651 0 0 Z " fill="#E0840C" transform="translate(139,153)"/>
<path d="M0 0 C3.09592835 3.5087188 4.74194623 6.49197399 6 11 C2.28631113 9.76210371 1.22645819 8.14775123 -1 5 C-1 4.34 -1 3.68 -1 3 C-1.66 2.67 -2.32 2.34 -3 2 C-2.01 1.34 -1.02 0.68 0 0 Z " fill="#D4893D" transform="translate(63,69)"/>
<path d="M0 0 C0.33 0 0.66 0 1 0 C1.02578125 0.7734375 1.0515625 1.546875 1.078125 2.34375 C1.45519702 9.26816347 2.44409517 14.03525642 6 20 C2.25979502 18.31847927 0.43865652 16.30960527 -2 13 C-1.34 13 -0.68 13 0 13 C0 8.71 0 4.42 0 0 Z " fill="#B67A36" transform="translate(140,106)"/>
<path d="M0 0 C2.97 0 5.94 0 9 0 C9 2.64 9 5.28 9 8 C7.68388323 7.04663979 6.37221039 6.08714226 5.0625 5.125 C4.33160156 4.59132813 3.60070312 4.05765625 2.84765625 3.5078125 C1 2 1 2 0 0 Z " fill="#D99F4E" transform="translate(173,87)"/>
<path d="M0 0 C2.45823172 3.68734758 3.01242616 6.69699971 4 11 C1 10 1 10 -0.16796875 7.93359375 C-0.50441406 7.10988281 -0.84085937 6.28617187 -1.1875 5.4375 C-1.53167969 4.61121094 -1.87585938 3.78492187 -2.23046875 2.93359375 C-2.48441406 2.29550781 -2.73835938 1.65742187 -3 1 C-2.01 0.67 -1.02 0.34 0 0 Z " fill="#D88C3E" transform="translate(74,64)"/>
<path d="M0 0 C1.80030122 2.70045182 2.93377066 5.06677881 4.125 8.0625 C4.47820312 8.94035156 4.83140625 9.81820312 5.1953125 10.72265625 C6 13 6 13 6 15 C4.0625 14.1875 4.0625 14.1875 2 13 C1.67 12.01 1.34 11.02 1 10 C0.67 9.34 0.34 8.68 0 8 C-0.13415472 5.3276379 -0.04318541 2.67749512 0 0 Z " fill="#C96B07" transform="translate(118,157)"/>
<path d="M0 0 C-0.99 2.97 -1.98 5.94 -3 9 C-4.32 8.34 -5.64 7.68 -7 7 C-3.86206897 0 -3.86206897 0 0 0 Z " fill="#DA9D4C" transform="translate(144,97)"/>
<path d="M0 0 C0 3 0 3 0 3 Z M-6 3 C-5.67 3.66 -5.34 4.32 -5 5 C-3.68 4.34 -2.36 3.68 -1 3 C-1.33 5.64 -1.66 8.28 -2 11 C-2.99 11 -3.98 11 -5 11 C-5.33 8.36 -5.66 5.72 -6 3 Z " fill="#F8BF74" transform="translate(47,89)"/>
<path d="M0 0 C3.16115776 1.36983503 3.9927092 1.9890638 6 5 C3.36 5.33 0.72 5.66 -2 6 C-1.34 4.02 -0.68 2.04 0 0 Z " fill="#F2BB64" transform="translate(195,72)"/>
<path d="M0 0 C0.98484375 0.00902344 1.9696875 0.01804688 2.984375 0.02734375 C4.10585937 0.04474609 4.10585937 0.04474609 5.25 0.0625 C5.25 0.3925 5.25 0.7225 5.25 1.0625 C-0.51081841 2.3607126 -5.83739655 3.31956972 -11.75 3.0625 C-8.30305607 -0.38444393 -4.70567242 -0.05601991 0 0 Z " fill="#ECA35A" transform="translate(107.75,35.9375)"/>
<path d="M0 0 C0.33 0 0.66 0 1 0 C1.3125 2.6875 1.3125 2.6875 1 6 C-1.172635 8.57285724 -2.97993838 10.48996919 -6 12 C-4 8 -2 4 0 0 Z " fill="#C98B40" transform="translate(136,175)"/>
<path d="M0 0 C1.98 0.99 1.98 0.99 4 2 C4.83886169 4.67790463 4.81766414 7.1737941 5 10 C4.01 10.495 4.01 10.495 3 11 C2.01 7.37 1.02 3.74 0 0 Z " fill="#E88A16" transform="translate(114,155)"/>
<path d="M0 0 C0.33 0.66 0.66 1.32 1 2 C-1.97 4.475 -1.97 4.475 -5 7 C-5 5.02 -5 3.04 -5 1 C-5.66 0.67 -6.32 0.34 -7 0 C-4.30234372 -1.34882814 -2.84835666 -0.80338265 0 0 Z " fill="#573A1F" transform="translate(160,88)"/>
<path d="M0 0 C0.33 0.99 0.66 1.98 1 3 C-1.97 3 -4.94 3 -8 3 C-8.33 2.34 -8.66 1.68 -9 1 C-6.04335481 -0.4783226 -3.25770263 -0.06032783 0 0 Z " fill="#E1D9BE" transform="translate(168,89)"/>
<path d="M0 0 C0.33 1.32 0.66 2.64 1 4 C1.66 4 2.32 4 3 4 C3.69710731 5.28650706 4.38242876 6.57940665 5.0625 7.875 C5.44535156 8.59429687 5.82820312 9.31359375 6.22265625 10.0546875 C6.47917969 10.69664063 6.73570312 11.33859375 7 12 C6.67 12.66 6.34 13.32 6 14 C4.8000962 12.23754778 3.61540483 10.46473019 2.4375 8.6875 C1.77621094 7.70136719 1.11492187 6.71523437 0.43359375 5.69921875 C-0.27603516 4.36310547 -0.27603516 4.36310547 -1 3 C-0.67 2.01 -0.34 1.02 0 0 Z " fill="#B16022" transform="translate(202,74)"/>
<path d="M0 0 C-1.4317521 5.01113235 -3.98445693 6.94469549 -8 10 C-7.61508669 5.50934475 -5.14531178 0 0 0 Z " fill="#B06424" transform="translate(196,70)"/>
<path d="M0 0 C2.74148672 0.37047118 4.58593199 0.68587944 6.8125 2.375 C8 4 8 4 8 7 C4.2047869 5.50902342 2.38957269 3.24299151 0 0 Z " fill="#AF6626" transform="translate(190,169)"/>
<path d="M0 0 C0.66 0.33 1.32 0.66 2 1 C2.144375 1.639375 2.28875 2.27875 2.4375 2.9375 C2.86165035 5.38210855 2.86165035 5.38210855 6 7 C5.01 7.66 4.02 8.32 3 9 C3 8.34 3 7.68 3 7 C1.68 7.33 0.36 7.66 -1 8 C-1.04241723 5.66705225 -1.04092937 3.33297433 -1 1 C-0.67 0.67 -0.34 0.34 0 0 Z " fill="#EC8E13" transform="translate(119,166)"/>
<path d="M0 0 C0.66 0 1.32 0 2 0 C2.625 2.375 2.625 2.375 3 5 C1 7 1 7 -2 9 C-1.125 2.25 -1.125 2.25 0 0 Z M1 2 C2 4 2 4 2 4 Z " fill="#D3B673" transform="translate(209,160)"/>
<path d="M0 0 C0 0.99 0 1.98 0 3 C-2.31 3.33 -4.62 3.66 -7 4 C-7.33 3.01 -7.66 2.02 -8 1 C-5.36 0.67 -2.72 0.34 0 0 Z " fill="#5D4129" transform="translate(100,106)"/>
<path d="M0 0 C0.66 0 1.32 0 2 0 C2 4.62 2 9.24 2 14 C1.67 14 1.34 14 1 14 C0.855625 12.7625 0.71125 11.525 0.5625 10.25 C0.28388159 7.96452146 -0.03818221 5.85490762 -0.625 3.625 C-1 2 -1 2 0 0 Z " fill="#5B3614" transform="translate(185,104)"/>
<path d="M0 0 C2.79872437 2.52788007 4.45773019 4.20411134 5 8 C4.01 8.495 4.01 8.495 3 9 C1.68 6.36 0.36 3.72 -1 1 C-0.67 0.67 -0.34 0.34 0 0 Z " fill="#A45C21" transform="translate(179,185)"/>
<path d="M0 0 C0.66 0.33 1.32 0.66 2 1 C1.3125 3.875 1.3125 3.875 0 7 C-2.625 8.375 -2.625 8.375 -5 9 C-5 8.34 -5 7.68 -5 7 C-4.34 7 -3.68 7 -3 7 C-1.79371992 4.66785852 -0.8345262 2.50357861 0 0 Z " fill="#5C2B10" transform="translate(132,165)"/>
<path d="M0 0 C0 0.99 0 1.98 0 3 C-3 5.1875 -3 5.1875 -6 7 C-6 5.68 -6 4.36 -6 3 C-2.78571429 0 -2.78571429 0 0 0 Z " fill="#CB8339" transform="translate(79,157)"/>
<path d="M0 0 C0.33 0 0.66 0 1 0 C1.33 3.63 1.66 7.26 2 11 C1.34 11 0.68 11 0 11 C-0.19406478 9.35492782 -0.38007935 7.70890406 -0.5625 6.0625 C-0.66691406 5.14597656 -0.77132812 4.22945312 -0.87890625 3.28515625 C-0.91886719 2.53105469 -0.95882812 1.77695313 -1 1 C-0.67 0.67 -0.34 0.34 0 0 Z " fill="#F3BB65" transform="translate(40,135)"/>
<path d="M0 0 C0.33 0.99 0.66 1.98 1 3 C-0.65 4.65 -2.3 6.3 -4 8 C-4 6.02 -4 4.04 -4 2 C-2.68 1.34 -1.36 0.68 0 0 Z " fill="#B95F05" transform="translate(132,180)"/>
<path d="M0 0 C2.475 0.495 2.475 0.495 5 1 C5 2.98 5 4.96 5 7 C3.29115995 5.37660195 1.62553283 3.70680947 0 2 C0 1.34 0 0.68 0 0 Z " fill="#D37508" transform="translate(123,181)"/>
<path d="M0 0 C2.88437779 1.29299694 4.87219421 2.65941363 7 5 C6.34 5.66 5.68 6.32 5 7 C2.5 5.1875 2.5 5.1875 0 3 C0 2.01 0 1.02 0 0 Z " fill="#C07833" transform="translate(177,157)"/>
<path d="M0 0 C2.88437779 1.29299694 4.87219421 2.65941363 7 5 C6.01 5.66 5.02 6.32 4 7 C2.33333333 5.33333333 0.66666667 3.66666667 -1 2 C-0.67 1.34 -0.34 0.68 0 0 Z " fill="#624120" transform="translate(99,87)"/>
<path d="M0 0 C2.25 -0.3125 2.25 -0.3125 5 0 C7.3125 2.5 7.3125 2.5 9 5 C7.68 5 6.36 5 5 5 C5 4.34 5 3.68 5 3 C3.35 2.67 1.7 2.34 0 2 C0 1.34 0 0.68 0 0 Z " fill="#CF964C" transform="translate(90,205)"/>
<path d="M0 0 C0.66 0.33 1.32 0.66 2 1 C1.75 3.375 1.75 3.375 1 6 C-1.0625 7.3125 -1.0625 7.3125 -3 8 C-3.75 6.25 -3.75 6.25 -4 4 C-2.0625 1.75 -2.0625 1.75 0 0 Z " fill="#FFFFD6" transform="translate(161,93)"/>
<path d="M0 0 C0.66 0.99 1.32 1.98 2 3 C0.68 5.31 -0.64 7.62 -2 10 C-2.66 10 -3.32 10 -4 10 C-3.29445932 6.33118845 -1.72264494 3.29549466 0 0 Z " fill="#B56928" transform="translate(183,65)"/>
<path d="M0 0 C1.125 1.75 1.125 1.75 2 4 C1.125 6.25 1.125 6.25 0 8 C-0.99 6.68 -1.98 5.36 -3 4 C-2.01 2.68 -1.02 1.36 0 0 Z " fill="#C26C11" transform="translate(142,148)"/>
<path d="M0 0 C2.64 0 5.28 0 8 0 C7.6875 1.9375 7.6875 1.9375 7 4 C6.01 4.33 5.02 4.66 4 5 C4 3.68 4 2.36 4 1 C2.68 0.67 1.36 0.34 0 0 Z " fill="#984902" transform="translate(139,137)"/>
<path d="M0 0 C2.31 1.65 4.62 3.3 7 5 C6.01 6.32 5.02 7.64 4 9 C0 2.25 0 2.25 0 0 Z " fill="#DFA352" transform="translate(145,126)"/>
<path d="M0 0 C0 3 0 3 -2.5 5.6875 C-3.325 6.450625 -4.15 7.21375 -5 8 C-5.99 7.67 -6.98 7.34 -8 7 C-5.36 4.69 -2.72 2.38 0 0 Z " fill="#3A1F0A" transform="translate(109,117)"/>
<path d="M0 0 C2.28015185 2.17157319 4.36317336 4.29923604 6 7 C5.578125 9.12890625 5.578125 9.12890625 5 11 C4.16151196 9.54462432 3.32936066 8.08559627 2.5 6.625 C1.80390625 5.40683594 1.80390625 5.40683594 1.09375 4.1640625 C0 2 0 2 0 0 Z " fill="#DCA251" transform="translate(207,87)"/>
<path d="M0 0 C0 3.90838866 -1.50567876 5.11594107 -4 8 C-4 6.02 -4 4.04 -4 2 C-2.68 1.34 -1.36 0.68 0 0 Z " fill="#DF7904" transform="translate(132,174)"/>
<path d="M0 0 C2.45823172 3.68734758 3.01242616 6.69699971 4 11 C2.68 10.34 1.36 9.68 0 9 C0 6.03 0 3.06 0 0 Z " fill="#C16508" transform="translate(114,146)"/>
<path d="M0 0 C-0.33 0.66 -0.66 1.32 -1 2 C-4.63 1.67 -8.26 1.34 -12 1 C-12 0.67 -12 0.34 -12 0 C-10.56359829 -0.19573608 -9.12580496 -0.38127816 -7.6875 -0.5625 C-6.88699219 -0.66691406 -6.08648437 -0.77132812 -5.26171875 -0.87890625 C-3 -1 -3 -1 0 0 Z " fill="#402510" transform="translate(172,88)"/>
<path d="M0 0 C0.99 0 1.98 0 3 0 C1.75023244 3.65316671 1.32901247 4.78065836 -2 7 C-1.34 4.69 -0.68 2.38 0 0 Z " fill="#D47C30" transform="translate(53,75)"/>
<path d="M0 0 C0.33 0 0.66 0 1 0 C1 4.29 1 8.58 1 13 C0.67 13 0.34 13 0 13 C0 8.71 0 4.42 0 0 Z " fill="#EB9C6B" transform="translate(219,131)"/>
<path d="M0 0 C0.33 0 0.66 0 1 0 C1 4.29 1 8.58 1 13 C0.67 13 0.34 13 0 13 C0 8.71 0 4.42 0 0 Z " fill="#E9BD6B" transform="translate(36,130)"/>
<path d="M0 0 C0.33 0 0.66 0 1 0 C1 4.29 1 8.58 1 13 C0.67 13 0.34 13 0 13 C0 8.71 0 4.42 0 0 Z " fill="#FFDC92" transform="translate(35,117)"/>
<path d="M0 0 C1.98 0 3.96 0 6 0 C2.25 2 2.25 2 0 2 C0 1.34 0 0.68 0 0 Z " fill="#FFDFBF" transform="translate(125,219)"/>
<path d="M0 0 C2.31 0 4.62 0 7 0 C7 0.33 7 0.66 7 1 C4.69 1 2.38 1 0 1 C0 0.67 0 0.34 0 0 Z " fill="#E38B4B" transform="translate(131,218)"/>
<path d="M0 0 C2.31 0 4.62 0 7 0 C7 0.33 7 0.66 7 1 C4.69 1 2.38 1 0 1 C0 0.67 0 0.34 0 0 Z " fill="#D79D57" transform="translate(138,217)"/>
<path d="M0 0 C2.31 0 4.62 0 7 0 C7 0.33 7 0.66 7 1 C4.69 1 2.38 1 0 1 C0 0.67 0 0.34 0 0 Z " fill="#F5CE54" transform="translate(111,217)"/>
<path d="M0 0 C2.31 0 4.62 0 7 0 C7 0.33 7 0.66 7 1 C4.69 1 2.38 1 0 1 C0 0.67 0 0.34 0 0 Z " fill="#E9A34B" transform="translate(112,32)"/>
<path d="M0 0 C2.31 0 4.62 0 7 0 C7 0.33 7 0.66 7 1 C4.69 1 2.38 1 0 1 C0 0.67 0 0.34 0 0 Z " fill="#E98557" transform="translate(119,31)"/>
<path d="M0 0 C1.98 0 3.96 0 6 0 C6 0.33 6 0.66 6 1 C4.02 1 2.04 1 0 1 C0 0.67 0 0.34 0 0 Z " fill="#DFB866" transform="translate(145,216)"/>
<path d="M0 0 C1.98 0 3.96 0 6 0 C6 0.33 6 0.66 6 1 C4.02 1 2.04 1 0 1 C0 0.67 0 0.34 0 0 Z " fill="#E9B062" transform="translate(105,216)"/>
<path d="M0 0 C1.98 0.99 1.98 0.99 4 2 C3.01 2 2.02 2 1 2 C0.67 1.34 0.34 0.68 0 0 Z " fill="#CD7F7F" transform="translate(181,48)"/>
<path d="M0 0 C1.98 0 3.96 0 6 0 C6 0.33 6 0.66 6 1 C4.02 1 2.04 1 0 1 C0 0.67 0 0.34 0 0 Z " fill="#8D7146" transform="translate(141,33)"/>
<path d="M0 0 C1.98 0 3.96 0 6 0 C6 0.33 6 0.66 6 1 C4.02 1 2.04 1 0 1 C0 0.67 0 0.34 0 0 Z " fill="#AD7F58" transform="translate(130,31)"/>
<path d="M0 0 C1.65 0 3.3 0 5 0 C5 0.33 5 0.66 5 1 C3.35 1 1.7 1 0 1 C0 0.67 0 0.34 0 0 Z " fill="#D07F50" transform="translate(152,35)"/>
<path d="M0 0 C1.65 0 3.3 0 5 0 C5 0.33 5 0.66 5 1 C3.35 1 1.7 1 0 1 C0 0.67 0 0.34 0 0 Z " fill="#9D7F50" transform="translate(147,34)"/>
<path d="M0 0 C1.65 0 3.3 0 5 0 C5 0.33 5 0.66 5 1 C3.35 1 1.7 1 0 1 C0 0.67 0 0.34 0 0 Z " fill="#E5905D" transform="translate(102,34)"/>
<path d="M0 0 C1.65 0 3.3 0 5 0 C5 0.33 5 0.66 5 1 C3.35 1 1.7 1 0 1 C0 0.67 0 0.34 0 0 Z " fill="#EEA16E" transform="translate(107,33)"/>
<path d="M0 0 C1.65 0 3.3 0 5 0 C5 0.33 5 0.66 5 1 C3.35 1 1.7 1 0 1 C0 0.67 0 0.34 0 0 Z " fill="#C79055" transform="translate(136,32)"/>
<path d="M0 0 C1 4 1 4 1 4 Z " fill="#FF946A" transform="translate(37,143)"/>
<path d="M0 0 C1 4 1 4 1 4 Z " fill="#C49F64" transform="translate(218,107)"/>
<path d="M0 0 C1 4 1 4 1 4 Z " fill="#DF5F3F" transform="translate(217,103)"/>
<path d="M0 0 C1 4 1 4 1 4 Z " fill="#FFCF5A" transform="translate(38,103)"/>
<path d="M0 0 C1 4 1 4 1 4 Z " fill="#C49F64" transform="translate(216,98)"/>
<path d="M0 0 C1 4 1 4 1 4 Z " fill="#FFD994" transform="translate(39,98)"/>
<path d="M0 0 C1 4 1 4 1 4 Z " fill="#D96A25" transform="translate(215,94)"/>
<path d="M0 0 C4 1 4 1 4 1 Z " fill="#CF8A64" transform="translate(98,35)"/>
<path d="M0 0 C4 1 4 1 4 1 Z " fill="#DFDFDF" transform="translate(126,30)"/>
<path d="M0 0 C3 1 3 1 3 1 Z " fill="#8D711C" transform="translate(151,215)"/>
<path d="M0 0 C3 1 3 1 3 1 Z " fill="#8D712A" transform="translate(102,215)"/>
<path d="M0 0 C3 1 3 1 3 1 Z " fill="#D48D71" transform="translate(156,213)"/>
<path d="M0 0 C3 1 3 1 3 1 Z " fill="#FFB871" transform="translate(97,213)"/>
<path d="M0 0 C3 1 3 1 3 1 Z " fill="#C67138" transform="translate(159,212)"/>
<path d="M0 0 C3 1 3 1 3 1 Z " fill="#C6AA1C" transform="translate(94,212)"/>
<path d="M0 0 C3 1 3 1 3 1 Z " fill="#D4B871" transform="translate(164,210)"/>
<path d="M0 0 C3 1 3 1 3 1 Z " fill="#D4B871" transform="translate(89,210)"/>
<path d="" fill="#E2AA8D" transform="translate(0,0)"/>
<path d="" fill="#FFC655" transform="translate(0,0)"/>
<path d="" fill="#E2C68D" transform="translate(0,0)"/>
<path d="" fill="#CD9B6A" transform="translate(0,0)"/>
<path d="" fill="#FFBF7F" transform="translate(0,0)"/>
<path d="M0 0 C0.66 0 1.32 0 2 0 C1.67 0.66 1.34 1.32 1 2 C0.67 1.34 0.34 0.68 0 0 Z " fill="#B85555" transform="translate(197,63)"/>
<path d="M0 0 C3 1 3 1 3 1 Z " fill="#55381C" transform="translate(85,41)"/>
<path d="M0 0 C3 1 3 1 3 1 Z " fill="#71551C" transform="translate(157,36)"/>
<path d="" fill="#FFFFFF" transform="translate(0,0)"/>
<path d="M0 0 C2 1 2 1 2 1 Z " fill="#DF7F5F" transform="translate(154,214)"/>
<path d="M0 0 C2 1 2 1 2 1 Z " fill="#DFBF5F" transform="translate(100,214)"/>
<path d="M0 0 C2 1 2 1 2 1 Z " fill="#DF7F5F" transform="translate(162,211)"/>
<path d="M0 0 C2 1 2 1 2 1 Z " fill="#FF946A" transform="translate(92,211)"/>
<path d="M0 0 C2 1 2 1 2 1 Z " fill="#FF946A" transform="translate(167,209)"/>
<path d="M0 0 C2 1 2 1 2 1 Z " fill="#DF7F5F" transform="translate(87,209)"/>
<path d="M0 0 C2 1 2 1 2 1 Z " fill="#FF552A" transform="translate(169,208)"/>
<path d="M0 0 C2 1 2 1 2 1 Z " fill="#D42A2A" transform="translate(85,208)"/>
<path d="M0 0 C2 1 2 1 2 1 Z " fill="#FFD4AA" transform="translate(172,206)"/>
<path d="M0 0 C2 1 2 1 2 1 Z " fill="#FFD4AA" transform="translate(82,206)"/>
<path d="M0 0 C2 1 2 1 2 1 Z " fill="#FFBF7F" transform="translate(175,204)"/>
<path d="M0 0 C2 1 2 1 2 1 Z " fill="#FFBF7F" transform="translate(79,204)"/>
<path d="M0 0 C2 1 2 1 2 1 Z " fill="#BF3F3F" transform="translate(178,202)"/>
<path d="M0 0 C2 1 2 1 2 1 Z " fill="#BF7F3F" transform="translate(76,202)"/>
<path d="M0 0 C2 1 2 1 2 1 Z " fill="#FF7F3F" transform="translate(73,200)"/>
<path d="M0 0 C2 1 2 1 2 1 Z " fill="#D4AA7F" transform="translate(183,199)"/>
<path d="M0 0 C2 1 2 1 2 1 Z " fill="#FFD47F" transform="translate(71,199)"/>
<path d="" fill="#D4942A" transform="translate(0,0)"/>
<path d="" fill="#FF942A" transform="translate(0,0)"/>
<path d="" fill="#FFD46A" transform="translate(0,0)"/>
<path d="" fill="#FFAA2A" transform="translate(0,0)"/>
<path d="" fill="#FFD46A" transform="translate(0,0)"/>
<path d="" fill="#946A3F" transform="translate(0,0)"/>
<path d="" fill="#BF7F3F" transform="translate(0,0)"/>
<path d="M0 0 C2 1 2 1 2 1 Z " fill="#FFAAAA" transform="translate(177,45)"/>
<path d="M0 0 C2 1 2 1 2 1 Z " fill="#FFD4AA" transform="translate(77,45)"/>
<path d="M0 0 C2 1 2 1 2 1 Z " fill="#FFAAAA" transform="translate(175,44)"/>
<path d="M0 0 C2 1 2 1 2 1 Z " fill="#FFD4AA" transform="translate(79,44)"/>
<path d="M0 0 C2 1 2 1 2 1 Z " fill="#55552A" transform="translate(172,43)"/>
<path d="M0 0 C2 1 2 1 2 1 Z " fill="#FFD42A" transform="translate(81,43)"/>
<path d="M0 0 C2 1 2 1 2 1 Z " fill="#942A2A" transform="translate(170,42)"/>
<path d="M0 0 C2 1 2 1 2 1 Z " fill="#5F5F3F" transform="translate(83,42)"/>
<path d="M0 0 C2 1 2 1 2 1 Z " fill="#AA2A2A" transform="translate(168,41)"/>
<path d="M0 0 C2 1 2 1 2 1 Z " fill="#D46A3F" transform="translate(166,40)"/>
<path d="M0 0 C2 1 2 1 2 1 Z " fill="#FF552A" transform="translate(88,40)"/>
<path d="M0 0 C2 1 2 1 2 1 Z " fill="#FFAA7F" transform="translate(164,39)"/>
<path d="M0 0 C2 1 2 1 2 1 Z " fill="#94552A" transform="translate(90,39)"/>
<path d="M0 0 C2 1 2 1 2 1 Z " fill="#FFD4AA" transform="translate(162,38)"/>
<path d="M0 0 C2 1 2 1 2 1 Z " fill="#FFBF3F" transform="translate(92,38)"/>
<path d="M0 0 C2 1 2 1 2 1 Z " fill="#FFD42A" transform="translate(160,37)"/>
<path d="M0 0 C2 1 2 1 2 1 Z " fill="#FFAA3F" transform="translate(94,37)"/>
<path d="M0 0 C2 1 2 1 2 1 Z " fill="#FF6A3F" transform="translate(96,36)"/>
<path d="" fill="#AAAA55" transform="translate(0,0)"/>
<path d="" fill="#FFFF7F" transform="translate(0,0)"/>
<path d="" fill="#AAAA55" transform="translate(0,0)"/>
<path d="" fill="#AAAA55" transform="translate(0,0)"/>
<path d="" fill="#FFAA55" transform="translate(0,0)"/>
<path d="" fill="#FFAA55" transform="translate(0,0)"/>
<path d="" fill="#BF7F3F" transform="translate(0,0)"/>
<path d="" fill="#FFAA55" transform="translate(0,0)"/>
<path d="" fill="#AAAA55" transform="translate(0,0)"/>
<path d="" fill="#AAAA55" transform="translate(0,0)"/>
<path d="" fill="#AAAA55" transform="translate(0,0)"/>
<path d="" fill="#FF7F00" transform="translate(0,0)"/>
<path d="" fill="#FFAA55" transform="translate(0,0)"/>
<path d="" fill="#FFAA55" transform="translate(0,0)"/>
<path d="" fill="#BF7F3F" transform="translate(0,0)"/>
<path d="" fill="#BF7F3F" transform="translate(0,0)"/>
<path d="" fill="#BF7F3F" transform="translate(0,0)"/>
<path d="" fill="#BF7F3F" transform="translate(0,0)"/>
<path d="" fill="#BF7F3F" transform="translate(0,0)"/>
<path d="" fill="#FFAA55" transform="translate(0,0)"/>
<path d="" fill="#FFAA55" transform="translate(0,0)"/>
<path d="" fill="#FFAA55" transform="translate(0,0)"/>
<path d="" fill="#FFAA55" transform="translate(0,0)"/>
<path d="" fill="#AAAA55" transform="translate(0,0)"/>
<path d="" fill="#AAAA55" transform="translate(0,0)"/>
<path d="" fill="#FFFF7F" transform="translate(0,0)"/>
<path d="" fill="#FFFF7F" transform="translate(0,0)"/>
<path d="" fill="#FFFF7F" transform="translate(0,0)"/>
<path d="" fill="#FFFF7F" transform="translate(0,0)"/>
<path d="" fill="#FFAA55" transform="translate(0,0)"/>
<path d="" fill="#BF7F3F" transform="translate(0,0)"/>
<path d="" fill="#BF7F3F" transform="translate(0,0)"/>
<path d="" fill="#BF7F3F" transform="translate(0,0)"/>
<path d="" fill="#FF7F3F" transform="translate(0,0)"/>
<path d="" fill="#BFBF3F" transform="translate(0,0)"/>
<path d="" fill="#AAAA55" transform="translate(0,0)"/>
<path d="" fill="#AAAA55" transform="translate(0,0)"/>
<path d="" fill="#AA5500" transform="translate(0,0)"/>
<path d="" fill="#AA5555" transform="translate(0,0)"/>
<path d="" fill="#FF7F00" transform="translate(0,0)"/>
<path d="" fill="#FFAA00" transform="translate(0,0)"/>
<path d="" fill="#AA5500" transform="translate(0,0)"/>
<path d="" fill="#BF7F00" transform="translate(0,0)"/>
<path d="" fill="#BF3F00" transform="translate(0,0)"/>
<path d="" fill="#BF7F3F" transform="translate(0,0)"/>
<path d="" fill="#BF3F00" transform="translate(0,0)"/>
<path d="" fill="#BF7F3F" transform="translate(0,0)"/>
<path d="" fill="#BF3F3F" transform="translate(0,0)"/>
<path d="" fill="#BF7F3F" transform="translate(0,0)"/>
<path d="" fill="#BF7F3F" transform="translate(0,0)"/>
<path d="" fill="#FFAA55" transform="translate(0,0)"/>
<path d="" fill="#BF7F3F" transform="translate(0,0)"/>
<path d="" fill="#FFAA55" transform="translate(0,0)"/>
<path d="" fill="#AA5555" transform="translate(0,0)"/>
<path d="" fill="#FFAA55" transform="translate(0,0)"/>
<path d="" fill="#AAAA55" transform="translate(0,0)"/>
<path d="" fill="#FFFF7F" transform="translate(0,0)"/>
<path d="" fill="#AA5555" transform="translate(0,0)"/>
<path d="" fill="#FFFF7F" transform="translate(0,0)"/>
<path d="" fill="#AA5555" transform="translate(0,0)"/>
<path d="" fill="#FF7F7F" transform="translate(0,0)"/>
<path d="" fill="#FF7F7F" transform="translate(0,0)"/>
<path d="" fill="#FF7F7F" transform="translate(0,0)"/>
<path d="" fill="#FF0000" transform="translate(0,0)"/>
<path d="" fill="#AA5500" transform="translate(0,0)"/>
<path d="" fill="#AA5500" transform="translate(0,0)"/>
<path d="" fill="#AAAA55" transform="translate(0,0)"/>
</svg>
